<?xml version="1.0" encoding="utf-8"?>
<!-- Generator: Adobe Illustrator 19.0.0, SVG Export Plug-In . SVG Version: 6.00 Build 0)  -->
<svg version="1.1" xmlns="http://www.w3.org/2000/svg" xmlns:xlink="http://www.w3.org/1999/xlink" x="0px" y="0px"
	 viewBox="0 0 500 500" style="enable-background:new 0 0 500 500;" xml:space="preserve">
<style type="text/css">
	.st0{display:none;}
	.st1{display:inline;fill:#EBEBEB;}
	.st2{fill:#263238;}
	.st3{fill:#FFFFFF;stroke:#000000;stroke-miterlimit:10;}
	.st4{fill:#263238;stroke:#000000;stroke-miterlimit:10;}
	.st5{fill:#E8505B;}
	.st6{fill:#E0E0E0;}
	.st7{fill:#FFFFFF;}
	.st8{font-family:'Montserrat-ExtraBold';}
	.st9{font-size:8px;}
	.st10{fill:#EBEBEB;}
	.st11{fill:#F5F5F5;}
	.st12{fill:#455A64;}
</style>
<g id="Background_Complete">
</g>
<g id="Background_Simple" class="st0">
	<path id="XMLID_144_" class="st1" d="M434.6,150c-10.8-26.9-32.4-50.1-59.9-59c-27.6-8.9-60.8-1.4-78.9,21.2
		c-14.7,18.3-18.5,43.5-33,62c-19,24.3-52.1,31.9-82.7,35.8c-30.6,3.8-63.2,6-88.3,23.8c-27,19.1-40.3,55.7-31.9,87.8
		c8.4,32,35.7,70.2,68.6,73.6l93,11.2c60.6,7.3,121.8-9.9,169.2-48.5c0.7-0.6,1.4-1.1,2.1-1.7c32.6-27.2,42.1-78.6,49-120.5
		C446.4,207,445.4,176.9,434.6,150z"/>
</g>
<g id="Floor">
</g>
<g id="Device">
	<g id="XMLID_148_">
		<g id="XMLID_149_">
			<g id="XMLID_150_">
				<g id="XMLID_151_">
					<g id="XMLID_152_">
						<g id="XMLID_153_">
							<path id="XMLID_629_" class="st2" d="M375.1,442.2l-144.3-0.1c-17.4,0-31.4-14.1-31.4-31.4L199.5,49
								c0-17.4,14.1-31.4,31.4-31.4l144.3,0.1c17.4,0,31.4,14.1,31.4,31.4l-0.1,361.7C406.5,428.1,392.5,442.2,375.1,442.2z"/>
						</g>
					</g>
				</g>
			</g>
		</g>
		<g id="XMLID_154_">
			<g id="XMLID_155_">
				<g id="XMLID_156_">
					<g id="XMLID_157_">
						<g id="XMLID_158_">
							<g id="XMLID_159_">
								<g id="XMLID_616_">
									<g id="XMLID_161_">
										<g id="XMLID_162_">
											<path id="XMLID_163_" class="st3" d="M375.2,31.4l-28,0c-3.8,0-6.8,3.2-6.8,7.1l0,5.1c0,3.9-3,7.1-6.8,7.1l-54.5,0
												c-3.8,0-6.8-3.2-6.8-7.1l0-5.1c0-3.9-3-7.1-6.8-7.1l-9.8,0l-24.5,0c-12.2,0-22,9.8-22,22l-0.1,353c0,12.2,9.8,22,22,22
												l144,0.1c12.2,0,22-9.8,22-22l0.1-353C397.2,41.2,387.4,31.4,375.2,31.4z"/>
										</g>
									</g>
									<g id="XMLID_164_">
										<g id="XMLID_165_">
											<g id="XMLID_166_">
												<path id="XMLID_167_" class="st4" d="M375.2,31.4c0,0,0.3,0,0.8,0c0.5,0,1.3,0,2.2,0.2c2,0.2,4.9,0.9,8.3,2.9
													c1.7,1,3.4,2.3,5,4.1c1.6,1.8,3.1,3.9,4.2,6.6c1.1,2.6,1.7,5.7,1.6,8.9c0,3.2,0,6.7,0,10.4c0,29.3,0,71.8,0.1,124.2
													c0,52.4,0,114.9,0,184.2c0,8.7,0,17.4,0,26.3c0,2.2,0,4.4,0,6.7c0,2.2-0.2,4.5-0.8,6.7c-0.6,2.2-1.5,4.3-2.8,6.2
													c-1.3,1.9-2.8,3.6-4.6,5.1c-3.6,2.9-8.1,4.7-12.7,4.9c-4.6,0.1-9.2,0-13.8,0.1c-9.3,0-18.6,0-28,0
													c-18.9,0-38.1,0-57.5,0c-9.7,0-19.5,0-29.4,0c-4.9,0-9.9,0-14.9,0c-5,0.3-10.2-1.1-14.3-4c-4.2-2.9-7.3-7.2-8.7-12.1
													c-0.8-2.4-0.9-5-0.9-7.4c0-2.5,0-5,0-7.4c0-9.9,0-19.7,0-29.4c0-19.5,0-38.7,0-57.5c0-37.7,0-74.1,0-108.8
													c0-34.7,0-67.6,0-98.4c0-15.4,0-30.3,0-44.6c0-1.8,0-3.6,0-5.3c0-0.9,0.1-1.8,0.1-2.7c0.2-0.9,0.2-1.8,0.5-2.6
													c0.8-3.4,2.4-6.7,4.6-9.3c2.2-2.6,5.1-4.7,8.2-6.1c3.1-1.4,6.5-1.9,9.8-1.9c6.6,0,13,0,19.2,0c3.1,0,6.2,0,9.2,0
													c1.5,0,3,0,4.5,0c1.5-0.1,3.1,0.3,4.3,1.2c1.2,0.9,2.2,2.1,2.7,3.5c0.6,1.4,0.4,2.9,0.4,4.3c0,0.7,0,1.4,0,2.1
													c0,0.7,0,1.4,0.1,2.1c0.2,1.4,0.8,2.7,1.6,3.7c0.9,1,2.1,1.8,3.4,2.1c0.7,0.2,1.3,0.2,2,0.2c0.7,0,1.4,0,2,0
													c2.7,0,5.3,0,7.9,0c10.4,0,20.1,0,29,0c4.5,0,8.7,0,12.8,0c1,0,2,0,3,0c1-0.1,1.9-0.4,2.7-0.9c1.6-1,2.7-2.7,3.1-4.4
													c0.2-0.9,0.2-1.8,0.2-2.7c0-0.9,0-1.8,0-2.6c0-0.9,0-1.7,0.1-2.6c0.1-0.8,0.4-1.6,0.8-2.4c0.8-1.4,2.1-2.5,3.5-3.1
													c1.4-0.6,3-0.4,4.4-0.5c5.6,0,10.4,0,14.3,0c3.9,0,6.8,0,8.8,0C374.2,31.4,375.2,31.4,375.2,31.4s-1,0-3,0
													c-2,0-4.9,0-8.8,0c-3.9,0-8.6,0-14.3,0c-1.4,0-2.9-0.1-4.3,0.5c-1.4,0.6-2.6,1.6-3.4,3c-0.4,0.7-0.7,1.5-0.8,2.3
													c-0.2,0.8-0.1,1.7-0.1,2.5c0,0.9,0,1.7,0,2.6c0,0.9,0,1.8-0.2,2.7c-0.4,1.8-1.5,3.6-3.2,4.6c-0.8,0.5-1.8,0.9-2.8,1
													c-1,0.1-2,0-3,0c-4.1,0-8.3,0-12.8,0c-8.9,0-18.6,0-29,0c-2.6,0-5.3,0-7.9,0c-0.7,0-1.3,0-2,0c-0.7,0-1.4,0-2.1-0.2
													c-1.4-0.3-2.6-1.1-3.6-2.2c-0.9-1.1-1.6-2.4-1.7-3.9c-0.1-0.7-0.1-1.4-0.1-2.1c0-0.7,0-1.4,0-2.1c0-1.4,0.1-2.9-0.4-4.2
													c-0.5-1.3-1.4-2.5-2.6-3.3c-1.2-0.8-2.6-1.2-4.1-1.1c-1.5,0-3,0-4.5,0c-3,0-6.1,0-9.2,0c-6.2,0-12.6,0-19.2,0
													c-3.3,0-6.6,0.5-9.6,1.8c-3,1.3-5.8,3.4-8,6c-2.2,2.6-3.7,5.8-4.5,9.1c-0.2,0.8-0.3,1.7-0.4,2.6c0,0.9-0.1,1.7-0.1,2.6
													c0,1.8,0,3.6,0,5.3c0,14.3,0,29.2,0,44.6c0,30.8,0,63.8,0,98.4c0,34.7,0,71.1,0,108.8c0,18.9,0,38.1,0,57.5
													c0,9.7,0,19.6,0,29.4c0,2.5,0,4.9,0,7.4c0,2.5,0.1,4.9,0.9,7.3c1.4,4.7,4.4,8.9,8.5,11.7c4.1,2.8,9,4.1,14,3.8
													c5,0,9.9,0,14.9,0c9.9,0,19.7,0,29.4,0c19.5,0,38.7,0,57.5,0c9.4,0,18.8,0,28,0c4.6,0,9.3,0.1,13.8-0.1
													c4.5-0.2,8.9-2,12.4-4.8c1.7-1.4,3.2-3.1,4.5-5c1.2-1.9,2.1-3.9,2.7-6c0.7-2.1,0.8-4.3,0.8-6.6c0-2.2,0-4.5,0-6.7
													c0-8.9,0-17.6,0-26.3c0-69.3,0.1-131.7,0.1-184.2c0.1-52.4,0.1-94.9,0.1-124.2c0-3.7,0-7.1,0-10.4
													c0-3.2-0.5-6.3-1.6-8.9c-1.1-2.6-2.5-4.8-4.1-6.5c-1.6-1.7-3.3-3.1-5-4.1c-3.3-2-6.3-2.6-8.2-2.9
													c-1-0.2-1.7-0.1-2.2-0.2C375.5,31.4,375.2,31.4,375.2,31.4z"/>
											</g>
										</g>
									</g>
								</g>
							</g>
						</g>
					</g>
				</g>
			</g>
			<g id="XMLID_160_">
				<g id="XMLID_168_">
					<g id="XMLID_169_">
						<g id="XMLID_170_">
							<g id="XMLID_171_">
								<g id="XMLID_172_">
									
										<ellipse id="XMLID_173_" transform="matrix(1 -8.276538e-003 8.276538e-003 1 -0.5426 3.0757)" class="st4" cx="371.3" cy="67.1" rx="8.1" ry="0.2"/>
								</g>
							</g>
						</g>
					</g>
				</g>
				<g id="XMLID_174_">
					<g id="XMLID_175_">
						<g id="XMLID_176_">
							<g id="XMLID_177_">
								<g id="XMLID_178_">
									
										<ellipse id="XMLID_179_" transform="matrix(1 -8.258028e-003 8.258028e-003 1 -0.5758 3.0692)" class="st4" cx="371.4" cy="71.3" rx="8.1" ry="0.2"/>
								</g>
							</g>
						</g>
					</g>
				</g>
				<g id="XMLID_180_">
					<g id="XMLID_181_">
						<g id="XMLID_182_">
							<g id="XMLID_183_">
								<g id="XMLID_184_">
									
										<ellipse id="XMLID_185_" transform="matrix(1 -8.276436e-003 8.276436e-003 1 -0.6114 3.0765)" class="st4" cx="371.4" cy="75.4" rx="8.1" ry="0.2"/>
								</g>
							</g>
						</g>
					</g>
				</g>
			</g>
			<g id="XMLID_186_">
				<g id="XMLID_187_">
					<g id="XMLID_188_">
						<g id="XMLID_189_">
							<g id="XMLID_190_">
								<path id="XMLID_191_" class="st4" d="M231.7,80.1c0,0,0.1,0,0.3,0c0.3,0,0.6,0,0.9,0c0.9,0,2,0,3.5-0.1l-0.1,0.1
									c0-0.8,0-1.6,0-2.5c0-0.5,0-0.9,0-1.4c0.1-0.5,0.6-1,1.2-1.1c0.6,0,1.1,0,1.7,0c0.6,0.1,1.2,0.7,1.1,1.3c0,1.2,0,2.4,0,3.7
									l-0.2-0.2c1.4,0,2.9,0,4.4,0l-0.2,0.2c0-1.8,0-3.6,0-5.5c0-0.5,0-0.9,0-1.4c0-0.4-0.3-0.7-0.6-1c-0.6-0.6-1.3-1.3-1.9-1.9
									c-0.6-0.6-1.2-1.2-1.8-1.8c-0.3-0.3-0.6-0.6-0.9-0.9c-0.3-0.3-0.5-0.6-0.9-0.7c-0.3-0.1-0.7,0-1,0.2
									c-0.3,0.2-0.5,0.5-0.8,0.8c-0.5,0.5-1.1,1.1-1.6,1.6c-1,1-2,2-2.8,2.8c-0.3,0.5-0.2,1.1-0.2,1.6c0,0.5,0,1.1,0,1.5
									c0,0.9,0,1.8,0,2.5c0,0.6,0,1.2,0,1.6C231.7,79.9,231.7,80.1,231.7,80.1c0,0,0-0.2,0-0.5c0-0.4,0-0.9,0-1.6
									c0-0.7,0-1.6-0.1-2.5c0-0.5,0-1,0-1.6c0-0.3,0-0.6,0-0.9c0-0.3,0.1-0.6,0.2-0.9c0.8-1,1.8-1.9,2.8-2.9c0.5-0.5,1-1,1.6-1.6
									c0.3-0.3,0.5-0.5,0.8-0.8c0.4-0.3,0.8-0.4,1.3-0.2c0.5,0.1,0.8,0.5,1.1,0.8c0.3,0.3,0.6,0.6,0.9,0.9
									c0.6,0.6,1.2,1.2,1.9,1.8c0.6,0.6,1.3,1.2,1.9,1.9c0.2,0.2,0.3,0.3,0.5,0.5c0.1,0.2,0.2,0.5,0.2,0.7c0,0.5,0,0.9,0,1.4
									c0,1.9,0,3.7,0,5.5l0,0.2l-0.2,0c-1.5,0-3,0-4.4,0l-0.2,0l0-0.2c0-1.3,0-2.5,0-3.7c0-0.5-0.4-1-0.9-1.1c-0.5,0-1.1,0-1.6,0
									c-0.5,0-0.9,0.4-0.9,0.9c0,0.4,0,1,0,1.4c0,0.9,0,1.7,0,2.5l0,0.1l-0.1,0c-1.4,0-2.6,0-3.5,0c-0.4,0-0.7,0-0.9,0
									C231.8,80.1,231.7,80.1,231.7,80.1z"/>
							</g>
						</g>
					</g>
				</g>
			</g>
		</g>
		<g id="XMLID_213_">
			<g id="XMLID_214_">
				<g id="XMLID_215_">
					<path id="XMLID_584_" class="st5" d="M287.2,234.1h-56.8c-1.4,0-2.5-1.1-2.5-2.5v-50.7c0-1.4,1.1-2.5,2.5-2.5h56.8
						c1.4,0,2.5,1.1,2.5,2.5v50.7C289.8,232.9,288.6,234.1,287.2,234.1z"/>
				</g>
				<g id="XMLID_216_">
					<g id="XMLID_241_">
						<g id="XMLID_242_">
							<ellipse id="XMLID_243_" class="st6" cx="325.4" cy="194.6" rx="21.4" ry="0.3"/>
						</g>
					</g>
					<g id="XMLID_244_">
						<g id="XMLID_245_">
							<g id="XMLID_246_">
								<g id="XMLID_247_">
									<path id="XMLID_248_" class="st2" d="M380.6,201.8c0,0.1-17.3,0.3-38.7,0.3c-21.4,0-38.7-0.1-38.7-0.3s17.3-0.3,38.7-0.3
										C363.2,201.6,380.6,201.7,380.6,201.8z"/>
								</g>
							</g>
							<g id="XMLID_249_">
								<g id="XMLID_250_">
									<ellipse id="XMLID_251_" class="st2" cx="322.9" cy="209.3" rx="19" ry="0.3"/>
								</g>
							</g>
						</g>
					</g>
					<g id="XMLID_252_">
						<g id="XMLID_253_">
							<path id="XMLID_571_" class="st5" d="M341.6,231.6h-33.2c-3.3,0-6-2.7-6-6v-2.3c0-3.3,2.7-6,6-6h33.2c3.3,0,6,2.7,6,6v2.3
								C347.6,228.9,344.9,231.6,341.6,231.6z"/>
						</g>
						<text id="XMLID_3_" transform="matrix(1 0 0 1 316.0566 227.6192)" class="st7 st8 st9">Vedi</text>
					</g>
					<g id="XMLID_2_">
						<path id="XMLID_547_" d="M312.5,177.8l-3.6,8.4h-2.3l-3.6-8.4h2.6l2.3,5.5l2.3-5.5H312.5z"/>
						<path id="XMLID_551_" d="M312.8,177.8c0-0.7,0.6-1.2,1.4-1.2c0.8,0,1.4,0.5,1.4,1.2c0,0.7-0.6,1.2-1.4,1.2
							C313.3,179,312.8,178.5,312.8,177.8z M313,179.7h2.3v6.5H313V179.7z"/>
						<path id="XMLID_557_" d="M322.9,182.6v3.6h-2.1v-0.8c-0.3,0.6-1,0.9-1.9,0.9c-1.6,0-2.4-0.9-2.4-2c0-1.2,0.9-1.9,2.9-1.9h1.3
							c0-0.7-0.5-1-1.4-1c-0.6,0-1.3,0.2-1.8,0.6l-0.8-1.5c0.7-0.5,1.8-0.8,2.9-0.8C321.7,179.6,322.9,180.6,322.9,182.6z
							 M320.6,184.2v-0.6h-1c-0.7,0-1,0.3-1,0.7c0,0.4,0.3,0.7,0.9,0.7C320,184.9,320.4,184.7,320.6,184.2z"/>
						<path id="XMLID_560_" d="M331.6,184h-1.3v2.2h-2.4v-8.4h3.8c2.3,0,3.7,1.2,3.7,3.1c0,1.2-0.6,2.1-1.6,2.7l1.8,2.6h-2.5
							L331.6,184z M331.6,179.7h-1.3v2.5h1.3c1,0,1.5-0.5,1.5-1.2C333.1,180.2,332.6,179.7,331.6,179.7z"/>
						<path id="XMLID_563_" d="M336.3,183c0-2,1.5-3.3,3.7-3.3c2.1,0,3.7,1.4,3.7,3.3c0,2-1.5,3.4-3.7,3.4
							C337.8,186.4,336.3,184.9,336.3,183z M341.3,183c0-1-0.6-1.5-1.4-1.5c-0.8,0-1.4,0.6-1.4,1.5c0,1,0.6,1.6,1.4,1.6
							C340.8,184.5,341.3,184,341.3,183z"/>
						<path id="XMLID_566_" d="M355.8,182.5v3.7h-2.3v-3.3c0-0.9-0.4-1.3-1-1.3c-0.7,0-1.1,0.4-1.1,1.5v3.2h-2.3v-3.3
							c0-0.9-0.4-1.3-1-1.3c-0.7,0-1.2,0.4-1.2,1.5v3.2h-2.3v-6.5h2.2v0.7c0.5-0.5,1.2-0.8,1.9-0.8c0.9,0,1.6,0.3,2.1,1
							c0.5-0.6,1.3-1,2.3-1C354.7,179.6,355.8,180.5,355.8,182.5z"/>
						<path id="XMLID_568_" d="M363.3,182.6v3.6h-2.1v-0.8c-0.3,0.6-1,0.9-1.9,0.9c-1.6,0-2.4-0.9-2.4-2c0-1.2,0.9-1.9,2.9-1.9h1.3
							c0-0.7-0.5-1-1.4-1c-0.6,0-1.3,0.2-1.8,0.6l-0.8-1.5c0.7-0.5,1.8-0.8,2.9-0.8C362.1,179.6,363.3,180.6,363.3,182.6z
							 M361.1,184.2v-0.6h-1c-0.7,0-1,0.3-1,0.7c0,0.4,0.3,0.7,0.9,0.7C360.4,184.9,360.9,184.7,361.1,184.2z"/>
						<path id="XMLID_572_" d="M371.5,177.8v8.4h-2.4v-6.6h-1.6v-1.8H371.5z"/>
					</g>
				</g>
				<g id="XMLID_267_">
					<g id="XMLID_268_">
						<g id="XMLID_269_">
							<path id="XMLID_270_" class="st7" d="M266.8,224.1c0,0,0-0.2,0-0.6c0-0.4,0-1,0-1.8c0-1.6,0-3.8-0.1-6.6
								c0-5.6-0.1-13.6-0.1-22.9l0.2,0.2c-6.6,0-13.8,0-21.5,0c-0.1,0.1,0.5-0.5,0.3-0.3v0v0v0v0.1v0.1v0.3l0,0.6l0,1.1
								c0,0.7,0,1.5,0,2.2c0,1.5,0,2.9,0,4.4c0,2.9,0,5.6,0,8.3c0,5.4,0,10.3,0,14.7l-0.2-0.2c6.5,0,11.8,0.1,15.6,0.1
								c1.8,0,3.3,0,4.3,0.1c0.5,0,0.9,0,1.1,0C266.6,224.1,266.8,224.1,266.8,224.1c0,0-0.1,0-0.4,0c-0.3,0-0.6,0-1.1,0
								c-1,0-2.5,0-4.3,0.1c-3.8,0-9.2,0.1-15.7,0.1l-0.2,0l0-0.2c0-4.4,0-9.4,0-14.7c0-2.7,0-5.5,0-8.3c0-1.4,0-2.9,0-4.4
								c0-0.7,0-1.5,0-2.2l0-1.1l0-0.6v-0.3v-0.1v-0.1v0v0v0c-0.2,0.2,0.3-0.3,0.3-0.3c7.7,0,14.9,0,21.5,0l0.2,0l0,0.2
								c0,9.4-0.1,17.4-0.1,23.1c0,2.8,0,5-0.1,6.5c0,0.7,0,1.3,0,1.7C266.8,223.9,266.8,224.1,266.8,224.1z"/>
						</g>
					</g>
					<g id="XMLID_271_">
						<g id="XMLID_272_">
							<path id="XMLID_273_" class="st7" d="M262.5,188c0.1-0.1,0.2,1.6,0.2,4.2l0,0.2l-0.2,0c-0.9,0-1.8,0-2.8,0
								c0.1,0.1-0.5-0.5-0.3-0.3v0v0v0v0v0v0v-0.1l0-0.1l0-0.3c0-0.2,0-0.4,0-0.6c0-0.4,0-0.7,0-1.1c0-0.7,0-1.3,0-2l0-0.2l0.2,0
								C261.5,187.9,262.6,188,262.5,188c-0.1,0-1.2,0.1-2.8,0.2l0.2-0.2c0,0.6,0,1.3,0,2c0,0.4,0,0.7,0,1.1c0,0.2,0,0.4,0,0.6
								l0,0.3l0,0.1v0.1v0v0v0v0v0v0c0.2,0.2-0.3-0.3-0.3-0.3c1,0,1.9,0,2.8,0l-0.2,0.2C262.4,189.9,262.5,188.1,262.5,188z"/>
						</g>
					</g>
					<g id="XMLID_274_">
						<g id="XMLID_275_">
							<path id="XMLID_276_" class="st7" d="M274.8,224.3c0,0-0.2,0-0.5,0c-0.4,0-0.9,0-1.6,0c-1.4,0-3.4,0-6,0l-0.2,0l0-0.2
								c-0.1-7.2-0.1-18.8-0.1-31.9V192h0.3h0.1c2.7,0,5.4,0,7.9,0l0.3,0l0,0.3c0,9.1-0.1,17.2-0.1,23c0,2.8-0.1,5.1-0.1,6.7
								c0,0.7,0,1.3,0,1.8C274.8,224.1,274.8,224.3,274.8,224.3c0,0,0-0.2,0-0.7c0-0.5,0-1.1,0-1.8c0-1.6,0-3.9-0.1-6.8
								c0-5.8-0.1-13.7-0.1-22.8l0.3,0.3c-2.6,0-5.2,0-7.9,0h-0.1l0.3-0.3c0,13.1,0,24.7-0.1,31.9l-0.2-0.2c2.5,0.1,4.5,0.2,5.9,0.2
								c0.7,0,1.2,0.1,1.6,0.1C274.6,224.3,274.8,224.3,274.8,224.3z"/>
						</g>
					</g>
					<g id="XMLID_277_">
						<rect id="XMLID_556_" x="248.7" y="196.3" class="st7" width="3.3" height="3.3"/>
					</g>
					<g id="XMLID_278_">
						<rect id="XMLID_554_" x="254.3" y="196.3" class="st7" width="3.3" height="3.3"/>
					</g>
					<g id="XMLID_279_">
						<rect id="XMLID_552_" x="260" y="196.3" class="st7" width="3.3" height="3.3"/>
					</g>
					<g id="XMLID_280_">
						<rect id="XMLID_550_" x="248.7" y="202" class="st7" width="3.3" height="3.3"/>
					</g>
					<g id="XMLID_281_">
						<rect id="XMLID_548_" x="254.3" y="202" class="st7" width="3.3" height="3.3"/>
					</g>
					<g id="XMLID_282_">
						<rect id="XMLID_546_" x="260" y="202" class="st7" width="3.3" height="3.3"/>
					</g>
					<g id="XMLID_283_">
						<rect id="XMLID_544_" x="248.7" y="207.7" class="st7" width="3.3" height="3.3"/>
					</g>
					<g id="XMLID_284_">
						<rect id="XMLID_542_" x="254.3" y="207.7" class="st7" width="3.3" height="3.3"/>
					</g>
					<g id="XMLID_285_">
						<rect id="XMLID_540_" x="260" y="207.7" class="st7" width="3.3" height="3.3"/>
					</g>
					<g id="XMLID_286_">
						<rect id="XMLID_538_" x="248.7" y="213.4" class="st7" width="3.3" height="3.3"/>
					</g>
					<g id="XMLID_287_">
						<rect id="XMLID_536_" x="254.3" y="213.4" class="st7" width="3.3" height="3.3"/>
					</g>
					<g id="XMLID_288_">
						<rect id="XMLID_534_" x="260" y="213.4" class="st7" width="3.3" height="3.3"/>
					</g>
					<g id="XMLID_289_">
						<rect id="XMLID_469_" x="268.8" y="196.3" class="st7" width="3.3" height="3.3"/>
					</g>
					<g id="XMLID_290_">
						<rect id="XMLID_467_" x="268.8" y="202" class="st7" width="3.3" height="3.3"/>
					</g>
					<g id="XMLID_291_">
						<rect id="XMLID_465_" x="268.8" y="207.7" class="st7" width="3.3" height="3.3"/>
					</g>
					<g id="XMLID_292_">
						<rect id="XMLID_463_" x="268.8" y="213.4" class="st7" width="3.3" height="3.3"/>
					</g>
					<g id="XMLID_293_">
						<rect id="XMLID_461_" x="254.7" y="219" class="st7" width="3.3" height="5.2"/>
					</g>
					<g id="XMLID_294_">
						<g id="XMLID_295_">
							<ellipse id="XMLID_296_" class="st7" cx="258.8" cy="224.1" rx="23.1" ry="0.3"/>
						</g>
					</g>
				</g>
			</g>
			<g id="XMLID_297_">
				<g id="XMLID_298_">
					<path id="XMLID_299_" class="st5" d="M384.4,241.8c0,0,0.4,0,1.2-0.2c0.8-0.2,2-0.7,2.9-2c0.4-0.7,0.8-1.5,0.8-2.5
						c0-1,0-2.1,0-3.2c0-2.3,0-5,0-8.1c0-12.1,0-29.7-0.1-51.3c0-0.7,0-1.3-0.2-2c-0.2-0.6-0.5-1.2-0.9-1.8c-0.8-1-2.1-1.7-3.5-1.8
						c-2.8,0-5.7,0-8.7,0c-5.9,0-12.1,0-18.4,0c-12.7,0-26.4,0-40.7,0c-28.7,0-60.2,0-93.2,0c-2,0-3.9,1.3-4.5,3.2
						c-0.4,0.9-0.3,1.9-0.3,3c0,1,0,2,0,3.1c0,4.1,0,8.1,0,12.2c0,8.1,0,16,0,23.8c0,7.8,0,15.4,0,22.9c0.1,1.8,1.3,3.4,3,4.1
						c0.4,0.2,0.8,0.3,1.3,0.3c0.4,0,0.9,0,1.4,0c0.9,0,1.8,0,2.8,0c3.7,0,7.3,0,10.9,0c28.7,0,54.5,0,76.1,0.1
						c21.7,0,39.2,0.1,51.3,0.1c6.1,0,10.8,0,14,0c1.6,0,2.8,0,3.6,0C384,241.8,384.4,241.8,384.4,241.8s-0.4,0-1.2,0
						c-0.8,0-2,0-3.6,0c-3.2,0-7.9,0-14,0c-12.1,0-29.7,0-51.3,0.1c-21.7,0-47.5,0-76.1,0.1c-3.6,0-7.2,0-10.9,0c-0.9,0-1.8,0-2.8,0
						c-0.5,0-0.9,0-1.4,0c-0.5-0.1-1-0.2-1.4-0.3c-1.8-0.7-3.2-2.5-3.3-4.5c0-7.5,0-15.2,0-23c0-7.8,0-15.7,0-23.8c0-4,0-8.1,0-12.2
						c0-1,0-2,0-3.1c0-0.5,0-1,0-1.5c0-0.5,0.1-1.1,0.3-1.6c0.7-2.1,2.8-3.6,5-3.5c33.1,0,64.6,0,93.2,0c14.3,0,27.9,0,40.7,0
						c6.4,0,12.5,0,18.4,0c3,0,5.9,0,8.7,0c1.5,0.1,2.9,0.8,3.8,1.9c0.5,0.6,0.8,1.2,1,1.9c0.2,0.7,0.2,1.4,0.2,2.1
						c0,21.7-0.1,39.2-0.1,51.3c0,3,0,5.7,0,8.1c0,1.2,0,2.2,0,3.2c-0.1,1-0.4,1.9-0.9,2.5c-0.9,1.3-2.2,1.8-3,2
						c-0.4,0.1-0.7,0.1-0.9,0.1C384.5,241.8,384.4,241.8,384.4,241.8z"/>
				</g>
			</g>
		</g>
		<g id="XMLID_470_">
			<g id="XMLID_471_">
				<path id="XMLID_450_" class="st10" d="M366.4,125.6H239.3c-3.9,0-7.1-3.2-7.1-7.1v-7.1c0-3.9,3.2-7.1,7.1-7.1h127.2
					c3.9,0,7.1,3.2,7.1,7.1v7.1C373.5,122.4,370.4,125.6,366.4,125.6z"/>
			</g>
			<g id="XMLID_472_">
				<g id="XMLID_473_">
					<g id="XMLID_474_">
						<g id="XMLID_475_">
							<g id="XMLID_476_">
								<g id="XMLID_477_">
									<path id="XMLID_478_" class="st2" d="M362.6,113.5c0,0,0-0.3-0.2-0.7c-0.1-0.4-0.4-1.1-1.1-1.5c-0.6-0.5-1.7-0.7-2.7-0.4
										c-1,0.3-1.8,1.4-1.8,2.6c0,1.2,0.8,2.3,1.8,2.6c1,0.4,2,0.1,2.7-0.4c0.7-0.5,1-1.1,1.1-1.5
										C362.6,113.8,362.6,113.5,362.6,113.5c0,0,0,0.1,0,0.2c0,0.1,0,0.3-0.1,0.5c-0.1,0.5-0.4,1.2-1.1,1.7
										c-0.7,0.5-1.8,0.9-2.9,0.5c-1.1-0.4-2.1-1.5-2.1-2.9c0-1.4,1-2.5,2.1-2.9c1.1-0.4,2.2-0.1,2.9,0.5c0.7,0.5,1,1.2,1.1,1.7
										c0,0.2,0.1,0.4,0.1,0.5C362.6,113.5,362.6,113.5,362.6,113.5z"/>
								</g>
							</g>
						</g>
					</g>
				</g>
				<g id="XMLID_479_">
					<g id="XMLID_480_">
						<g id="XMLID_481_">
							<g id="XMLID_482_">
								<g id="XMLID_483_">
									
										<ellipse id="XMLID_484_" transform="matrix(0.6786 0.7345 -0.7345 0.6786 202.7264 -228.9075)" class="st2" cx="362.9" cy="117.2" rx="1.9" ry="0.2"/>
								</g>
							</g>
						</g>
					</g>
				</g>
			</g>
			<g id="XMLID_485_">
				<path id="XMLID_486_" class="st2" d="M245.7,113.9h-1.3v-0.5h3.1v0.5h-1.3v3.3h-0.5V113.9z"/>
				<path id="XMLID_488_" class="st2" d="M247.5,115.7c0-0.9,0.6-1.5,1.5-1.5c0.9,0,1.5,0.6,1.5,1.5c0,0.9-0.6,1.5-1.5,1.5
					C248.1,117.2,247.5,116.6,247.5,115.7z M249.9,115.7c0-0.6-0.4-1-1-1c-0.6,0-1,0.4-1,1c0,0.6,0.4,1,1,1
					C249.5,116.8,249.9,116.4,249.9,115.7z"/>
				<path id="XMLID_491_" class="st2" d="M250.9,114.6c0-0.2,0.2-0.4,0.4-0.4c0.2,0,0.4,0.2,0.4,0.4c0,0.2-0.2,0.4-0.4,0.4
					C251.1,115,250.9,114.9,250.9,114.6z M250.9,116.8c0-0.2,0.2-0.4,0.4-0.4c0.2,0,0.4,0.2,0.4,0.4s-0.2,0.4-0.4,0.4
					C251.1,117.2,250.9,117.1,250.9,116.8z"/>
			</g>
			<g id="XMLID_494_">
				<g id="XMLID_495_">
					<path id="XMLID_496_" class="st2" d="M334.8,115.9c0,0.1-16.2,0.3-36.2,0.3c-20,0-36.2-0.1-36.2-0.3c0-0.1,16.2-0.3,36.2-0.3
						C318.6,115.6,334.8,115.7,334.8,115.9z"/>
				</g>
			</g>
		</g>
		<g id="XMLID_497_">
			<g id="XMLID_498_">
				<path id="XMLID_422_" class="st10" d="M366.4,154.2H239.3c-3.9,0-7.1-3.2-7.1-7.1V140c0-3.9,3.2-7.1,7.1-7.1h127.2
					c3.9,0,7.1,3.2,7.1,7.1v7.1C373.5,151,370.4,154.2,366.4,154.2z"/>
			</g>
			<g id="XMLID_499_">
				<g id="XMLID_500_">
					<g id="XMLID_501_">
						<g id="XMLID_502_">
							<g id="XMLID_503_">
								<g id="XMLID_504_">
									<path id="XMLID_505_" class="st2" d="M362.6,143.2c0,0,0-0.3-0.2-0.7c-0.1-0.4-0.4-1.1-1.1-1.5c-0.6-0.5-1.7-0.7-2.7-0.4
										c-1,0.3-1.8,1.4-1.8,2.6c0,1.2,0.8,2.3,1.8,2.6c1,0.4,2,0.1,2.7-0.4c0.7-0.5,1-1.1,1.1-1.5
										C362.6,143.4,362.6,143.2,362.6,143.2c0,0,0,0.1,0,0.2c0,0.1,0,0.3-0.1,0.5c-0.1,0.5-0.4,1.2-1.1,1.7
										c-0.7,0.5-1.8,0.9-2.9,0.5c-1.1-0.4-2.1-1.5-2.1-2.9c0-1.4,1-2.5,2.1-2.9c1.1-0.4,2.2-0.1,2.9,0.5c0.7,0.5,1,1.2,1.1,1.7
										c0,0.2,0.1,0.4,0.1,0.5C362.6,143.1,362.6,143.2,362.6,143.2z"/>
								</g>
							</g>
						</g>
					</g>
				</g>
				<g id="XMLID_506_">
					<g id="XMLID_507_">
						<g id="XMLID_508_">
							<g id="XMLID_509_">
								<g id="XMLID_510_">
									
										<ellipse id="XMLID_511_" transform="matrix(0.6786 0.7345 -0.7345 0.6786 224.4944 -219.3819)" class="st2" cx="362.9" cy="146.8" rx="1.9" ry="0.2"/>
								</g>
							</g>
						</g>
					</g>
				</g>
			</g>
			<g id="XMLID_512_">
				<path id="XMLID_513_" class="st2" d="M244.9,140.9h1.6c1.2,0,2.1,0.8,2.1,1.9c0,1.1-0.8,1.9-2.1,1.9h-1.6V140.9z M246.5,144.3
					c0.9,0,1.5-0.6,1.5-1.4c0-0.9-0.6-1.4-1.5-1.4h-1v2.9H246.5z"/>
				<path id="XMLID_516_" class="st2" d="M251.6,143v1.7h-0.5v-0.4c-0.2,0.3-0.5,0.4-0.9,0.4c-0.7,0-1.1-0.3-1.1-0.8
					c0-0.5,0.3-0.8,1.2-0.8h0.8V143c0-0.4-0.3-0.7-0.8-0.7c-0.3,0-0.7,0.1-0.9,0.3l-0.2-0.4c0.3-0.2,0.7-0.4,1.2-0.4
					C251.2,141.8,251.6,142.2,251.6,143z M251.1,143.9v-0.4h-0.8c-0.5,0-0.7,0.2-0.7,0.4c0,0.3,0.2,0.5,0.6,0.5
					C250.6,144.4,251,144.2,251.1,143.9z"/>
				<path id="XMLID_519_" class="st2" d="M254.2,144.6c-0.2,0.1-0.4,0.2-0.6,0.2c-0.6,0-0.9-0.3-0.9-0.9v-1.6h-0.5v-0.4h0.5v-0.6
					h0.5v0.6h0.8v0.4h-0.8v1.6c0,0.3,0.2,0.5,0.5,0.5c0.2,0,0.3,0,0.4-0.1L254.2,144.6z"/>
				<path id="XMLID_521_" class="st2" d="M257.3,143.5H255c0.1,0.5,0.5,0.8,1,0.8c0.3,0,0.6-0.1,0.8-0.3l0.3,0.3
					c-0.3,0.3-0.7,0.5-1.1,0.5c-0.9,0-1.5-0.6-1.5-1.5c0-0.9,0.6-1.5,1.4-1.5c0.8,0,1.4,0.6,1.4,1.5
					C257.3,143.4,257.3,143.4,257.3,143.5z M255,143.1h1.8c-0.1-0.5-0.4-0.8-0.9-0.8C255.4,142.3,255,142.6,255,143.1z"/>
				<path id="XMLID_524_" class="st2" d="M257.8,142.2c0-0.2,0.2-0.4,0.4-0.4c0.2,0,0.4,0.2,0.4,0.4s-0.2,0.4-0.4,0.4
					C258,142.6,257.8,142.4,257.8,142.2z M257.8,144.4c0-0.2,0.2-0.4,0.4-0.4c0.2,0,0.4,0.2,0.4,0.4s-0.2,0.4-0.4,0.4
					C258,144.8,257.8,144.6,257.8,144.4z"/>
			</g>
			<g id="XMLID_527_">
				<g id="XMLID_528_">
					<ellipse id="XMLID_529_" class="st2" cx="271.5" cy="143.5" rx="4.8" ry="0.3"/>
				</g>
			</g>
			<g id="XMLID_530_">
				<g id="XMLID_531_">
					<ellipse id="XMLID_532_" class="st2" cx="297.5" cy="143.6" rx="15.3" ry="0.3"/>
				</g>
			</g>
		</g>
		<g id="XMLID_1_">
			<path id="XMLID_574_" d="M277.7,86.8c0-2.6,2-4.4,4.6-4.4c1.5,0,2.8,0.6,3.6,1.6l-1.5,1.4c-0.5-0.6-1.2-1-2-1
				c-1.4,0-2.3,1-2.3,2.4c0,1.4,1,2.4,2.3,2.4c0.8,0,1.5-0.3,2-1l1.5,1.4c-0.8,1-2.1,1.6-3.6,1.6C279.6,91.2,277.7,89.4,277.7,86.8z
				"/>
			<path id="XMLID_576_" d="M292.9,87.4V91h-2.1v-0.8c-0.3,0.6-1,0.9-1.9,0.9c-1.6,0-2.4-0.9-2.4-2c0-1.2,0.9-1.9,2.9-1.9h1.3
				c0-0.7-0.5-1-1.4-1c-0.6,0-1.3,0.2-1.8,0.6l-0.8-1.5c0.7-0.5,1.8-0.8,2.9-0.8C291.7,84.4,292.9,85.4,292.9,87.4z M290.6,88.9
				v-0.6h-1c-0.7,0-1,0.3-1,0.7c0,0.4,0.3,0.7,0.9,0.7C290,89.7,290.5,89.5,290.6,88.9z"/>
			<path id="XMLID_579_" d="M301.3,87.3V91H299v-3.3c0-0.9-0.4-1.3-1.1-1.3c-0.7,0-1.3,0.5-1.3,1.5V91h-2.3v-6.5h2.2v0.7
				c0.5-0.5,1.2-0.8,2.1-0.8C300.1,84.4,301.3,85.3,301.3,87.3z"/>
			<path id="XMLID_581_" d="M307.2,90.8c-0.4,0.3-1,0.4-1.6,0.4c-1.7,0-2.6-0.8-2.6-2.5v-2.2H302v-1.7h0.9v-1.7h2.3v1.7h1.5v1.7
				h-1.5v2.2c0,0.5,0.3,0.7,0.7,0.7c0.3,0,0.5-0.1,0.7-0.2L307.2,90.8z"/>
			<path id="XMLID_583_" d="M307.8,82.6c0-0.7,0.6-1.2,1.4-1.2s1.4,0.5,1.4,1.2c0,0.7-0.6,1.2-1.4,1.2S307.8,83.3,307.8,82.6z
				 M308.1,84.5h2.3V91h-2.3V84.5z"/>
			<path id="XMLID_587_" d="M318.4,88.4h-4.7c0.2,0.7,0.8,1,1.6,1c0.6,0,1.1-0.2,1.5-0.6l1.2,1.2c-0.6,0.7-1.5,1.1-2.8,1.1
				c-2.3,0-3.8-1.4-3.8-3.4c0-2,1.5-3.3,3.6-3.3c1.9,0,3.5,1.2,3.5,3.4C318.5,88,318.5,88.2,318.4,88.4z M313.7,87.2h2.7
				c-0.1-0.7-0.6-1.1-1.3-1.1S313.8,86.5,313.7,87.2z"/>
			<path id="XMLID_590_" d="M323.9,84.4v2.1c-0.2,0-0.3,0-0.5,0c-0.9,0-1.6,0.5-1.6,1.6v3h-2.3v-6.5h2.2v0.8
				C322.2,84.7,322.9,84.4,323.9,84.4z"/>
			<path id="XMLID_592_" d="M324.6,82.6c0-0.7,0.6-1.2,1.4-1.2s1.4,0.5,1.4,1.2c0,0.7-0.6,1.2-1.4,1.2S324.6,83.3,324.6,82.6z
				 M324.8,84.5h2.3V91h-2.3V84.5z"/>
		</g>
		<g id="XMLID_4_">
			<g id="XMLID_8_">
				<g id="XMLID_73_">
					<path id="XMLID_75_" class="st5" d="M286.4,318.8h-56.8c-1.4,0-2.5-1.1-2.5-2.5v-50.7c0-1.4,1.1-2.5,2.5-2.5h56.8
						c1.4,0,2.5,1.1,2.5,2.5v50.7C289,317.7,287.8,318.8,286.4,318.8z"/>
				</g>
				<g id="XMLID_56_">
					<g id="XMLID_70_">
						<g id="XMLID_71_">
							<ellipse id="XMLID_72_" class="st6" cx="324.6" cy="279.3" rx="21.4" ry="0.3"/>
						</g>
					</g>
					<g id="XMLID_61_">
						<g id="XMLID_63_">
							<g id="XMLID_67_">
								<g id="XMLID_68_">
									<path id="XMLID_69_" class="st2" d="M379.8,286.6c0,0.1-17.3,0.3-38.7,0.3c-21.4,0-38.7-0.1-38.7-0.3s17.3-0.3,38.7-0.3
										C362.4,286.3,379.8,286.4,379.8,286.6z"/>
								</g>
							</g>
							<g id="XMLID_64_">
								<g id="XMLID_65_">
									<ellipse id="XMLID_66_" class="st2" cx="322.1" cy="294" rx="19" ry="0.3"/>
								</g>
							</g>
						</g>
					</g>
					<g id="XMLID_58_">
						<g id="XMLID_60_">
							<path id="XMLID_62_" class="st5" d="M340.8,316.3h-33.2c-3.3,0-6-2.7-6-6V308c0-3.3,2.7-6,6-6h33.2c3.3,0,6,2.7,6,6v2.3
								C346.8,313.6,344.1,316.3,340.8,316.3z"/>
						</g>
						<text id="XMLID_59_" transform="matrix(1 0 0 1 315.2466 312.3372)" class="st7 st8 st9">Vedi</text>
					</g>
					<g id="XMLID_57_">
						<path id="XMLID_595_" d="M311.7,262.6l-3.6,8.4h-2.3l-3.6-8.4h2.6l2.3,5.5l2.3-5.5H311.7z"/>
						<path id="XMLID_597_" d="M312,262.5c0-0.7,0.6-1.2,1.4-1.2s1.4,0.5,1.4,1.2c0,0.7-0.6,1.2-1.4,1.2S312,263.2,312,262.5z
							 M312.2,264.5h2.3v6.5h-2.3V264.5z"/>
						<path id="XMLID_600_" d="M322.1,267.4v3.6H320v-0.8c-0.3,0.6-1,0.9-1.9,0.9c-1.6,0-2.4-0.9-2.4-2c0-1.2,0.9-1.9,2.9-1.9h1.3
							c0-0.7-0.5-1-1.4-1c-0.6,0-1.3,0.2-1.8,0.6l-0.8-1.5c0.7-0.5,1.8-0.8,2.9-0.8C320.9,264.4,322.1,265.3,322.1,267.4z
							 M319.8,268.9v-0.6h-1c-0.7,0-1,0.3-1,0.7c0,0.4,0.3,0.7,0.9,0.7C319.2,269.6,319.6,269.4,319.8,268.9z"/>
						<path id="XMLID_603_" d="M335.6,262.6L332,271h-2.3l-3.6-8.4h2.6l2.3,5.5l2.3-5.5H335.6z"/>
						<path id="XMLID_605_" d="M342.2,268.3h-4.7c0.2,0.7,0.8,1,1.6,1c0.6,0,1.1-0.2,1.5-0.6l1.2,1.2c-0.6,0.7-1.5,1.1-2.8,1.1
							c-2.3,0-3.8-1.4-3.8-3.4c0-2,1.5-3.3,3.6-3.3c1.9,0,3.5,1.2,3.5,3.4C342.2,267.9,342.2,268.1,342.2,268.3z M337.4,267.1h2.7
							c-0.1-0.7-0.6-1.1-1.3-1.1C338,266,337.5,266.4,337.4,267.1z"/>
						<path id="XMLID_608_" d="M347.6,264.4v2.1c-0.2,0-0.3,0-0.5,0c-0.9,0-1.6,0.5-1.6,1.6v3h-2.3v-6.5h2.2v0.8
							C345.9,264.7,346.7,264.4,347.6,264.4z"/>
						<path id="XMLID_610_" d="M355.4,262.1v8.9h-2.2v-0.6c-0.4,0.5-1.1,0.8-1.9,0.8c-1.8,0-3.2-1.3-3.2-3.4c0-2.1,1.4-3.3,3.2-3.3
							c0.8,0,1.4,0.2,1.8,0.7v-3H355.4z M353.2,267.7c0-1-0.6-1.5-1.4-1.5c-0.8,0-1.4,0.6-1.4,1.5c0,1,0.6,1.6,1.4,1.6
							C352.6,269.3,353.2,268.7,353.2,267.7z"/>
						<path id="XMLID_613_" d="M356.6,262.5c0-0.7,0.6-1.2,1.4-1.2s1.4,0.5,1.4,1.2c0,0.7-0.6,1.2-1.4,1.2S356.6,263.2,356.6,262.5z
							 M356.9,264.5h2.3v6.5h-2.3V264.5z"/>
						<path id="XMLID_617_" d="M370.3,269.1v1.9h-6.5v-1.5l3.1-2.9c0.7-0.6,0.8-1,0.8-1.4c0-0.5-0.4-0.9-1.1-0.9
							c-0.6,0-1.2,0.3-1.5,0.8l-1.8-1c0.6-1.1,1.8-1.8,3.5-1.8c1.9,0,3.3,1,3.3,2.6c0,0.8-0.2,1.6-1.4,2.7l-1.6,1.5H370.3z"/>
						<path id="XMLID_619_" d="M374.6,262.6v8.4h-2.4v-6.6h-1.6v-1.8H374.6z"/>
					</g>
				</g>
				<g id="XMLID_9_">
					<g id="XMLID_53_">
						<g id="XMLID_54_">
							<path id="XMLID_55_" class="st7" d="M265.9,308.8c0,0,0-0.2,0-0.6c0-0.4,0-1,0-1.8c0-1.6,0-3.8-0.1-6.6
								c0-5.6-0.1-13.6-0.1-22.9l0.2,0.2c-6.6,0-13.8,0-21.5,0c-0.1,0.1,0.5-0.5,0.3-0.3v0v0v0v0.1v0.1v0.3l0,0.6l0,1.1
								c0,0.7,0,1.5,0,2.2c0,1.5,0,2.9,0,4.4c0,2.9,0,5.6,0,8.3c0,5.4,0,10.3,0,14.7l-0.2-0.2c6.5,0,11.8,0.1,15.6,0.1
								c1.8,0,3.3,0,4.3,0.1c0.5,0,0.9,0,1.1,0C265.8,308.8,265.9,308.8,265.9,308.8c0,0-0.1,0-0.4,0c-0.3,0-0.6,0-1.1,0
								c-1,0-2.5,0-4.3,0.1c-3.8,0-9.2,0.1-15.7,0.1l-0.2,0l0-0.2c0-4.4,0-9.4,0-14.7c0-2.7,0-5.5,0-8.3c0-1.4,0-2.9,0-4.4
								c0-0.7,0-1.5,0-2.2l0-1.1l0-0.6v-0.3v-0.1V277v0v0v0c-0.2,0.2,0.3-0.3,0.3-0.3c7.7,0,14.9,0,21.5,0l0.2,0l0,0.2
								c0,9.4-0.1,17.4-0.1,23.1c0,2.8,0,5-0.1,6.5c0,0.7,0,1.3,0,1.7C266,308.7,266,308.9,265.9,308.8z"/>
						</g>
					</g>
					<g id="XMLID_50_">
						<g id="XMLID_51_">
							<path id="XMLID_52_" class="st7" d="M261.7,272.7c0.1-0.1,0.2,1.6,0.2,4.2l0,0.2l-0.2,0c-0.9,0-1.8,0-2.8,0
								c0.1,0.1-0.5-0.5-0.3-0.3v0v0v0v0v0v0v-0.1l0-0.1l0-0.3c0-0.2,0-0.4,0-0.6c0-0.4,0-0.7,0-1.1c0-0.7,0-1.3,0-2l0-0.2l0.2,0
								C260.7,272.6,261.8,272.7,261.7,272.7c-0.1,0-1.2,0.1-2.8,0.2l0.2-0.2c0,0.6,0,1.3,0,2c0,0.4,0,0.7,0,1.1c0,0.2,0,0.4,0,0.6
								l0,0.3l0,0.1v0.1v0v0v0v0v0v0c0.2,0.2-0.3-0.3-0.3-0.3c1,0,1.9,0,2.8,0l-0.2,0.2C261.5,274.6,261.7,272.8,261.7,272.7z"/>
						</g>
					</g>
					<g id="XMLID_46_">
						<g id="XMLID_48_">
							<path id="XMLID_49_" class="st7" d="M274,309c0,0-0.2,0-0.5,0c-0.4,0-0.9,0-1.6,0c-1.4,0-3.4,0-6,0l-0.2,0l0-0.2
								c-0.1-7.2-0.1-18.8-0.1-31.9v-0.3h0.3h0.1c2.7,0,5.4,0,7.9,0l0.3,0l0,0.3c0,9.1-0.1,17.2-0.1,23c0,2.8-0.1,5.1-0.1,6.7
								c0,0.7,0,1.3,0,1.8C274,308.8,274,309,274,309c0,0,0-0.2,0-0.7c0-0.5,0-1.1,0-1.8c0-1.6,0-3.9-0.1-6.8
								c0-5.8-0.1-13.7-0.1-22.8l0.3,0.3c-2.6,0-5.2,0-7.9,0h-0.1l0.3-0.3c0,13.1,0,24.7-0.1,31.9l-0.2-0.2c2.5,0.1,4.5,0.2,5.9,0.2
								c0.7,0,1.2,0.1,1.6,0.1C273.8,309,274,309,274,309z"/>
						</g>
					</g>
					<g id="XMLID_44_">
						<rect id="XMLID_47_" x="247.9" y="281" class="st7" width="3.3" height="3.3"/>
					</g>
					<g id="XMLID_42_">
						<rect id="XMLID_45_" x="253.5" y="281" class="st7" width="3.3" height="3.3"/>
					</g>
					<g id="XMLID_40_">
						<rect id="XMLID_43_" x="259.2" y="281" class="st7" width="3.3" height="3.3"/>
					</g>
					<g id="XMLID_38_">
						<rect id="XMLID_41_" x="247.9" y="286.7" class="st7" width="3.3" height="3.3"/>
					</g>
					<g id="XMLID_36_">
						<rect id="XMLID_39_" x="253.5" y="286.7" class="st7" width="3.3" height="3.3"/>
					</g>
					<g id="XMLID_34_">
						<rect id="XMLID_37_" x="259.2" y="286.7" class="st7" width="3.3" height="3.3"/>
					</g>
					<g id="XMLID_32_">
						<rect id="XMLID_35_" x="247.9" y="292.4" class="st7" width="3.3" height="3.3"/>
					</g>
					<g id="XMLID_30_">
						<rect id="XMLID_33_" x="253.5" y="292.4" class="st7" width="3.3" height="3.3"/>
					</g>
					<g id="XMLID_28_">
						<rect id="XMLID_31_" x="259.2" y="292.4" class="st7" width="3.3" height="3.3"/>
					</g>
					<g id="XMLID_26_">
						<rect id="XMLID_29_" x="247.9" y="298.2" class="st7" width="3.3" height="3.3"/>
					</g>
					<g id="XMLID_24_">
						<rect id="XMLID_27_" x="253.5" y="298.2" class="st7" width="3.3" height="3.3"/>
					</g>
					<g id="XMLID_22_">
						<rect id="XMLID_25_" x="259.2" y="298.2" class="st7" width="3.3" height="3.3"/>
					</g>
					<g id="XMLID_20_">
						<rect id="XMLID_23_" x="268" y="281" class="st7" width="3.3" height="3.3"/>
					</g>
					<g id="XMLID_18_">
						<rect id="XMLID_21_" x="268" y="286.7" class="st7" width="3.3" height="3.3"/>
					</g>
					<g id="XMLID_16_">
						<rect id="XMLID_19_" x="268" y="292.4" class="st7" width="3.3" height="3.3"/>
					</g>
					<g id="XMLID_14_">
						<rect id="XMLID_17_" x="268" y="298.2" class="st7" width="3.3" height="3.3"/>
					</g>
					<g id="XMLID_13_">
						<rect id="XMLID_15_" x="253.9" y="303.7" class="st7" width="3.3" height="5.2"/>
					</g>
					<g id="XMLID_10_">
						<g id="XMLID_11_">
							<ellipse id="XMLID_12_" class="st7" cx="258" cy="308.8" rx="23.1" ry="0.3"/>
						</g>
					</g>
				</g>
			</g>
			<g id="XMLID_5_">
				<g id="XMLID_6_">
					<path id="XMLID_7_" class="st5" d="M383.6,326.5c0,0,0.4,0,1.2-0.2c0.8-0.2,2-0.7,2.9-2c0.4-0.7,0.8-1.5,0.8-2.5
						c0-1,0-2.1,0-3.2c0-2.3,0-5,0-8.1c0-12.1,0-29.7-0.1-51.3c0-0.7,0-1.3-0.2-2c-0.2-0.6-0.5-1.2-0.9-1.8c-0.8-1-2.1-1.7-3.5-1.8
						c-2.8,0-5.7,0-8.7,0c-5.9,0-12.1,0-18.4,0c-12.7,0-26.4,0-40.7,0c-28.7,0-60.2,0-93.2,0c-2,0-3.9,1.3-4.5,3.2
						c-0.4,0.9-0.3,1.9-0.3,3c0,1,0,2,0,3.1c0,4.1,0,8.1,0,12.2c0,8.1,0,16,0,23.8c0,7.8,0,15.4,0,22.9c0.1,1.8,1.3,3.4,3,4.1
						c0.4,0.2,0.8,0.3,1.3,0.3c0.4,0,0.9,0,1.4,0c0.9,0,1.8,0,2.8,0c3.7,0,7.3,0,10.9,0c28.7,0,54.5,0,76.1,0.1
						c21.7,0,39.2,0.1,51.3,0.1c6.1,0,10.8,0,14,0c1.6,0,2.8,0,3.6,0C383.2,326.5,383.6,326.5,383.6,326.5s-0.4,0-1.2,0
						c-0.8,0-2,0-3.6,0c-3.2,0-7.9,0-14,0c-12.1,0-29.7,0-51.3,0.1c-21.7,0-47.5,0-76.1,0.1c-3.6,0-7.2,0-10.9,0c-0.9,0-1.8,0-2.8,0
						c-0.5,0-0.9,0-1.4,0c-0.5-0.1-1-0.2-1.4-0.3c-1.8-0.7-3.2-2.5-3.3-4.5c0-7.5,0-15.2,0-23c0-7.8,0-15.7,0-23.8c0-4,0-8.1,0-12.2
						c0-1,0-2,0-3.1c0-0.5,0-1,0-1.5c0-0.5,0.1-1.1,0.3-1.6c0.7-2.1,2.8-3.6,5-3.5c33.1,0,64.6,0,93.2,0c14.3,0,27.9,0,40.7,0
						c6.4,0,12.5,0,18.4,0c3,0,5.9,0,8.7,0c1.5,0.1,2.9,0.8,3.8,1.9c0.5,0.6,0.8,1.2,1,1.9c0.2,0.7,0.2,1.4,0.2,2.1
						c0,21.7-0.1,39.2-0.1,51.3c0,3,0,5.7,0,8.1c0,1.2,0,2.2,0,3.2c-0.1,1-0.4,1.9-0.9,2.5c-0.9,1.3-2.2,1.8-3,2
						c-0.4,0.1-0.7,0.1-0.9,0.1C383.7,326.5,383.6,326.5,383.6,326.5z"/>
				</g>
			</g>
		</g>
		<g id="XMLID_74_">
			<g id="XMLID_79_">
				<g id="XMLID_145_">
					<path id="XMLID_146_" class="st5" d="M286.8,402.3H230c-1.4,0-2.5-1.1-2.5-2.5V349c0-1.4,1.1-2.5,2.5-2.5h56.8
						c1.4,0,2.5,1.1,2.5,2.5v50.7C289.3,401.2,288.2,402.3,286.8,402.3z"/>
				</g>
				<g id="XMLID_127_">
					<g id="XMLID_141_">
						<g id="XMLID_142_">
							<ellipse id="XMLID_143_" class="st6" cx="325" cy="362.8" rx="21.4" ry="0.3"/>
						</g>
					</g>
					<g id="XMLID_133_">
						<g id="XMLID_134_">
							<g id="XMLID_138_">
								<g id="XMLID_139_">
									<path id="XMLID_140_" class="st2" d="M380.2,370.1c0,0.1-17.3,0.3-38.7,0.3c-21.4,0-38.7-0.1-38.7-0.3s17.3-0.3,38.7-0.3
										C362.8,369.8,380.2,369.9,380.2,370.1z"/>
								</g>
							</g>
							<g id="XMLID_135_">
								<g id="XMLID_136_">
									<ellipse id="XMLID_137_" class="st2" cx="322.5" cy="377.5" rx="19" ry="0.3"/>
								</g>
							</g>
						</g>
					</g>
					<g id="XMLID_129_">
						<g id="XMLID_131_">
							<path id="XMLID_132_" class="st5" d="M341.2,399.8H308c-3.3,0-6-2.7-6-6v-2.3c0-3.3,2.7-6,6-6h33.2c3.3,0,6,2.7,6,6v2.3
								C347.2,397.1,344.5,399.8,341.2,399.8z"/>
						</g>
						<text id="XMLID_130_" transform="matrix(1 0 0 1 315.6293 395.8372)" class="st7 st8 st9">Vedi</text>
					</g>
					<g id="XMLID_128_">
						<path id="XMLID_621_" d="M312.1,346.1l-3.6,8.4h-2.3l-3.6-8.4h2.6l2.3,5.5l2.3-5.5H312.1z"/>
						<path id="XMLID_623_" d="M312.4,346c0-0.7,0.6-1.2,1.4-1.2s1.4,0.5,1.4,1.2c0,0.7-0.6,1.2-1.4,1.2S312.4,346.7,312.4,346z
							 M312.6,348h2.3v6.5h-2.3V348z"/>
						<path id="XMLID_626_" d="M322.5,350.9v3.6h-2.1v-0.8c-0.3,0.6-1,0.9-1.9,0.9c-1.6,0-2.4-0.9-2.4-2c0-1.2,0.9-1.9,2.9-1.9h1.3
							c0-0.7-0.5-1-1.4-1c-0.6,0-1.3,0.2-1.8,0.6l-0.8-1.5c0.7-0.5,1.8-0.8,2.9-0.8C321.3,347.9,322.5,348.8,322.5,350.9z
							 M320.2,352.4v-0.6h-1c-0.7,0-1,0.3-1,0.7c0,0.4,0.3,0.7,0.9,0.7C319.6,353.1,320,352.9,320.2,352.4z"/>
						<path id="XMLID_630_" d="M323.9,345.6h2.3v8.9h-2.3V345.6z"/>
						<path id="XMLID_632_" d="M334.3,351.8h-4.7c0.2,0.7,0.8,1,1.6,1c0.6,0,1.1-0.2,1.5-0.6l1.2,1.2c-0.6,0.7-1.5,1.1-2.8,1.1
							c-2.3,0-3.8-1.4-3.8-3.4c0-2,1.5-3.3,3.6-3.3c1.9,0,3.5,1.2,3.5,3.4C334.3,351.4,334.3,351.6,334.3,351.8z M329.5,350.6h2.7
							c-0.1-0.7-0.6-1.1-1.3-1.1C330.1,349.5,329.6,349.9,329.5,350.6z"/>
						<path id="XMLID_635_" d="M339,346.1h2.4v6.5h4v1.9H339V346.1z"/>
						<path id="XMLID_637_" d="M345.9,346c0-0.7,0.6-1.2,1.4-1.2s1.4,0.5,1.4,1.2c0,0.7-0.6,1.2-1.4,1.2S345.9,346.7,345.9,346z
							 M346.2,348h2.3v6.5h-2.3V348z"/>
						<path id="XMLID_640_" d="M357.2,351.2c0,2.1-1.4,3.4-3.2,3.4c-0.9,0-1.5-0.2-1.9-0.8v0.6h-2.2v-8.9h2.3v3
							c0.4-0.5,1.1-0.7,1.8-0.7C355.8,347.9,357.2,349.1,357.2,351.2z M354.9,351.2c0-1-0.6-1.5-1.4-1.5s-1.4,0.6-1.4,1.5
							c0,1,0.6,1.6,1.4,1.6S354.9,352.2,354.9,351.2z"/>
						<path id="XMLID_643_" d="M358,346c0-0.7,0.6-1.2,1.4-1.2s1.4,0.5,1.4,1.2c0,0.7-0.6,1.2-1.4,1.2S358,346.7,358,346z
							 M358.3,348h2.3v6.5h-2.3V348z"/>
						<path id="XMLID_646_" d="M368.1,350.9v3.6H366v-0.8c-0.3,0.6-1,0.9-1.9,0.9c-1.6,0-2.4-0.9-2.4-2c0-1.2,0.9-1.9,2.9-1.9h1.3
							c0-0.7-0.5-1-1.4-1c-0.6,0-1.3,0.2-1.8,0.6l-0.8-1.5c0.7-0.5,1.8-0.8,2.9-0.8C366.9,347.9,368.1,348.8,368.1,350.9z
							 M365.8,352.4v-0.6h-1c-0.7,0-1,0.3-1,0.7c0,0.4,0.3,0.7,0.9,0.7C365.2,353.1,365.7,352.9,365.8,352.4z"/>
					</g>
				</g>
				<g id="XMLID_80_">
					<g id="XMLID_124_">
						<g id="XMLID_125_">
							<path id="XMLID_126_" class="st7" d="M266.3,392.3c0,0,0-0.2,0-0.6c0-0.4,0-1,0-1.8c0-1.6,0-3.8-0.1-6.6
								c0-5.6-0.1-13.6-0.1-22.9l0.2,0.2c-6.6,0-13.8,0-21.5,0c-0.1,0.1,0.5-0.5,0.3-0.3v0v0v0v0.1v0.1v0.3l0,0.6l0,1.1
								c0,0.7,0,1.5,0,2.2c0,1.5,0,2.9,0,4.4c0,2.9,0,5.6,0,8.3c0,5.4,0,10.3,0,14.7l-0.2-0.2c6.5,0,11.8,0.1,15.6,0.1
								c1.8,0,3.3,0,4.3,0.1c0.5,0,0.9,0,1.1,0C266.2,392.3,266.3,392.3,266.3,392.3c0,0-0.1,0-0.4,0c-0.3,0-0.6,0-1.1,0
								c-1,0-2.5,0-4.3,0.1c-3.8,0-9.2,0.1-15.7,0.1l-0.2,0l0-0.2c0-4.4,0-9.4,0-14.7c0-2.7,0-5.5,0-8.3c0-1.4,0-2.9,0-4.4
								c0-0.7,0-1.5,0-2.2l0-1.1l0-0.6v-0.3v-0.1v-0.1v0v0v0c-0.2,0.2,0.3-0.3,0.3-0.3c7.7,0,14.9,0,21.5,0l0.2,0l0,0.2
								c0,9.4-0.1,17.4-0.1,23.1c0,2.8,0,5-0.1,6.5c0,0.7,0,1.3,0,1.7C266.4,392.2,266.3,392.4,266.3,392.3z"/>
						</g>
					</g>
					<g id="XMLID_121_">
						<g id="XMLID_122_">
							<path id="XMLID_123_" class="st7" d="M262.1,356.2c0.1-0.1,0.2,1.6,0.2,4.2l0,0.2l-0.2,0c-0.9,0-1.8,0-2.8,0
								c0.1,0.1-0.5-0.5-0.3-0.3v0v0v0v0v0v0v-0.1l0-0.1l0-0.3c0-0.2,0-0.4,0-0.6c0-0.4,0-0.7,0-1.1c0-0.7,0-1.3,0-2l0-0.2l0.2,0
								C261.1,356.1,262.2,356.2,262.1,356.2c-0.1,0-1.2,0.1-2.8,0.2l0.2-0.2c0,0.6,0,1.3,0,2c0,0.4,0,0.7,0,1.1c0,0.2,0,0.4,0,0.6
								l0,0.3l0,0.1v0.1v0v0v0v0v0v0c0.2,0.2-0.3-0.3-0.3-0.3c1,0,1.9,0,2.8,0l-0.2,0.2C261.9,358.1,262.1,356.3,262.1,356.2z"/>
						</g>
					</g>
					<g id="XMLID_118_">
						<g id="XMLID_119_">
							<path id="XMLID_120_" class="st7" d="M274.4,392.5c0,0-0.2,0-0.5,0c-0.4,0-0.9,0-1.6,0c-1.4,0-3.4,0-6,0l-0.2,0l0-0.2
								c-0.1-7.2-0.1-18.8-0.1-31.9v-0.3h0.3h0.1c2.7,0,5.4,0,7.9,0l0.3,0l0,0.3c0,9.1-0.1,17.2-0.1,23c0,2.8-0.1,5.1-0.1,6.7
								c0,0.7,0,1.3,0,1.8C274.4,392.3,274.4,392.5,274.4,392.5c0,0,0-0.2,0-0.7c0-0.5,0-1.1,0-1.8c0-1.6,0-3.9-0.1-6.8
								c0-5.8-0.1-13.7-0.1-22.8l0.3,0.3c-2.6,0-5.2,0-7.9,0h-0.1l0.3-0.3c0,13.1,0,24.7-0.1,31.9l-0.2-0.2c2.5,0.1,4.5,0.2,5.9,0.2
								c0.7,0,1.2,0.1,1.6,0.1C274.2,392.5,274.4,392.5,274.4,392.5z"/>
						</g>
					</g>
					<g id="XMLID_116_">
						<rect id="XMLID_117_" x="248.3" y="364.5" class="st7" width="3.3" height="3.3"/>
					</g>
					<g id="XMLID_114_">
						<rect id="XMLID_115_" x="253.9" y="364.5" class="st7" width="3.3" height="3.3"/>
					</g>
					<g id="XMLID_112_">
						<rect id="XMLID_113_" x="259.6" y="364.5" class="st7" width="3.3" height="3.3"/>
					</g>
					<g id="XMLID_110_">
						<rect id="XMLID_111_" x="248.3" y="370.2" class="st7" width="3.3" height="3.3"/>
					</g>
					<g id="XMLID_108_">
						<rect id="XMLID_109_" x="253.9" y="370.2" class="st7" width="3.3" height="3.3"/>
					</g>
					<g id="XMLID_106_">
						<rect id="XMLID_107_" x="259.6" y="370.2" class="st7" width="3.3" height="3.3"/>
					</g>
					<g id="XMLID_104_">
						<rect id="XMLID_105_" x="248.3" y="375.9" class="st7" width="3.3" height="3.3"/>
					</g>
					<g id="XMLID_102_">
						<rect id="XMLID_103_" x="253.9" y="375.9" class="st7" width="3.3" height="3.3"/>
					</g>
					<g id="XMLID_100_">
						<rect id="XMLID_101_" x="259.6" y="375.9" class="st7" width="3.3" height="3.3"/>
					</g>
					<g id="XMLID_98_">
						<rect id="XMLID_99_" x="248.3" y="381.7" class="st7" width="3.3" height="3.3"/>
					</g>
					<g id="XMLID_96_">
						<rect id="XMLID_97_" x="253.9" y="381.7" class="st7" width="3.3" height="3.3"/>
					</g>
					<g id="XMLID_94_">
						<rect id="XMLID_95_" x="259.6" y="381.7" class="st7" width="3.3" height="3.3"/>
					</g>
					<g id="XMLID_92_">
						<rect id="XMLID_93_" x="268.4" y="364.5" class="st7" width="3.3" height="3.3"/>
					</g>
					<g id="XMLID_90_">
						<rect id="XMLID_91_" x="268.4" y="370.2" class="st7" width="3.3" height="3.3"/>
					</g>
					<g id="XMLID_88_">
						<rect id="XMLID_89_" x="268.4" y="375.9" class="st7" width="3.3" height="3.3"/>
					</g>
					<g id="XMLID_86_">
						<rect id="XMLID_87_" x="268.4" y="381.7" class="st7" width="3.3" height="3.3"/>
					</g>
					<g id="XMLID_84_">
						<rect id="XMLID_85_" x="254.3" y="387.2" class="st7" width="3.3" height="5.2"/>
					</g>
					<g id="XMLID_81_">
						<g id="XMLID_82_">
							<ellipse id="XMLID_83_" class="st7" cx="258.4" cy="392.3" rx="23.1" ry="0.3"/>
						</g>
					</g>
				</g>
			</g>
			<g id="XMLID_76_">
				<g id="XMLID_77_">
					<path id="XMLID_78_" class="st5" d="M384,410c0,0,0.4,0,1.2-0.2c0.8-0.2,2-0.7,2.9-2c0.4-0.7,0.8-1.5,0.8-2.5c0-1,0-2.1,0-3.2
						c0-2.3,0-5,0-8.1c0-12.1,0-29.7-0.1-51.3c0-0.7,0-1.3-0.2-2c-0.2-0.6-0.5-1.2-0.9-1.8c-0.8-1-2.1-1.7-3.5-1.8
						c-2.8,0-5.7,0-8.7,0c-5.9,0-12.1,0-18.4,0c-12.7,0-26.4,0-40.7,0c-28.7,0-60.2,0-93.2,0c-2,0-3.9,1.3-4.5,3.2
						c-0.4,0.9-0.3,1.9-0.3,3c0,1,0,2,0,3.1c0,4.1,0,8.1,0,12.2c0,8.1,0,16,0,23.8c0,7.8,0,15.4,0,22.9c0.1,1.8,1.3,3.4,3,4.1
						c0.4,0.2,0.8,0.3,1.3,0.3c0.4,0,0.9,0,1.4,0c0.9,0,1.8,0,2.8,0c3.7,0,7.3,0,10.9,0c28.7,0,54.5,0,76.1,0.1
						c21.7,0,39.2,0.1,51.3,0.1c6.1,0,10.8,0,14,0c1.6,0,2.8,0,3.6,0C383.6,410,384,410,384,410s-0.4,0-1.2,0c-0.8,0-2,0-3.6,0
						c-3.2,0-7.9,0-14,0c-12.1,0-29.7,0-51.3,0.1c-21.7,0-47.5,0-76.1,0.1c-3.6,0-7.2,0-10.9,0c-0.9,0-1.8,0-2.8,0
						c-0.5,0-0.9,0-1.4,0c-0.5-0.1-1-0.2-1.4-0.3c-1.8-0.7-3.2-2.5-3.3-4.5c0-7.5,0-15.2,0-23c0-7.8,0-15.7,0-23.8c0-4,0-8.1,0-12.2
						c0-1,0-2,0-3.1c0-0.5,0-1,0-1.5c0-0.5,0.1-1.1,0.3-1.6c0.7-2.1,2.8-3.6,5-3.5c33.1,0,64.6,0,93.2,0c14.3,0,27.9,0,40.7,0
						c6.4,0,12.5,0,18.4,0c3,0,5.9,0,8.7,0c1.5,0.1,2.9,0.8,3.8,1.9c0.5,0.6,0.8,1.2,1,1.9c0.2,0.7,0.2,1.4,0.2,2.1
						c0,21.7-0.1,39.2-0.1,51.3c0,3,0,5.7,0,8.1c0,1.2,0,2.2,0,3.2c-0.1,1-0.4,1.9-0.9,2.5c-0.9,1.3-2.2,1.8-3,2
						c-0.4,0.1-0.7,0.1-0.9,0.1C384.1,410,384,410,384,410z"/>
				</g>
			</g>
		</g>
	</g>
	<g id="XMLID_147_">
		<g id="XMLID_452_">
			<g id="XMLID_453_">
				<g id="XMLID_454_">
					<g id="XMLID_455_">
						<g id="XMLID_1305_">
							<g id="XMLID_459_">
								<path id="XMLID_460_" class="st11" d="M264.4,95.2l-26.2,0c-3.5,0-6.4,3-6.4,6.6l0,4.7c0,3.7-2.8,6.6-6.4,6.6l-51,0
									c-3.5,0-6.4-3-6.4-6.6l0-4.7c0-3.7-2.8-6.6-6.4-6.6l-9.2,0l-22.9,0c-11.4,0-20.6,9.2-20.6,20.6L109,446.1
									c0,11.4,9.2,20.6,20.6,20.6l134.8,0.1c11.4,0,20.6-9.2,20.6-20.6l0.1-330.4C285,104.4,275.8,95.2,264.4,95.2z"/>
							</g>
							<g id="XMLID_456_">
								<g id="XMLID_457_">
									<path id="XMLID_458_" class="st2" d="M264.4,95.2c0,0,0.2,0,0.7,0c0.5,0,1.2,0,2.1,0.2c1.8,0.2,4.6,0.8,7.7,2.7
										c3.1,1.8,6.6,5,8.6,10c1,2.5,1.6,5.3,1.5,8.4c0,3,0,6.3,0,9.7c0,27.5,0,67.2,0.1,116.2c0,49.1,0,107.5,0,172.4
										c0,8.1,0,16.3,0,24.6c0,2.1,0,4.2,0,6.2c0,2.1-0.2,4.3-0.8,6.3c-0.6,2-1.4,4-2.6,5.8c-1.2,1.8-2.6,3.4-4.3,4.8
										c-3.4,2.7-7.6,4.4-11.9,4.6c-4.3,0.1-8.6,0-12.9,0.1c-8.7,0-17.4,0-26.2,0c-17.7,0-35.6,0-53.8,0c-9.1,0-18.3,0-27.5,0
										c-4.6,0-9.3,0-13.9,0c-4.7,0.2-9.5-1-13.4-3.7c-3.9-2.7-6.8-6.8-8.2-11.3c-0.7-2.3-0.9-4.7-0.9-7c0-2.3,0-4.6,0-6.9
										c0-9.2,0-18.4,0-27.5c0-18.2,0-36.2,0-53.9c0-35.3,0-69.4,0-101.8c0-32.4,0-63.3,0-92.1c0-14.4,0-28.4,0-41.8
										c0-1.7,0-3.3,0-5c0-0.8,0.1-1.7,0.1-2.5c0.1-0.8,0.2-1.7,0.4-2.5c0.8-3.2,2.2-6.3,4.3-8.7c2.1-2.5,4.7-4.4,7.6-5.7
										c2.9-1.3,6.1-1.8,9.2-1.7c6.1,0,12.1,0,18,0c2.9,0,5.8,0,8.6,0c1.4,0,2.8,0,4.2,0c1.4-0.1,2.9,0.3,4.1,1.1
										c1.2,0.8,2.1,2,2.5,3.3c0.5,1.3,0.4,2.8,0.4,4.1c0,1.3-0.1,2.7,0.1,4c0.2,1.3,0.7,2.5,1.5,3.4c0.8,1,1.9,1.7,3.1,2
										c1.2,0.3,2.5,0.1,3.8,0.2c2.5,0,5,0,7.4,0c9.7,0,18.8,0,27.2,0c4.2,0,8.2,0,12,0c0.9,0,1.9,0,2.8,0
										c0.9-0.1,1.8-0.4,2.5-0.9c1.5-0.9,2.5-2.5,2.9-4.1c0.2-0.8,0.2-1.7,0.2-2.5c0-0.8,0-1.7,0-2.5c0-0.8,0-1.6,0.1-2.4
										c0.1-0.8,0.4-1.5,0.8-2.2c0.7-1.4,2-2.4,3.3-2.9c1.4-0.6,2.8-0.4,4.1-0.4c5.3,0,9.7,0,13.4,0c3.6,0,6.4,0,8.2,0
										C263.5,95.1,264.4,95.2,264.4,95.2s-0.9,0-2.8,0c-1.9,0-4.6,0-8.2,0c-3.6,0-8.1,0-13.4,0c-1.3,0-2.7-0.1-4,0.4
										c-1.3,0.5-2.5,1.5-3.2,2.8c-0.4,0.7-0.6,1.4-0.7,2.1c-0.1,0.8-0.1,1.6-0.1,2.4c0,0.8,0,1.6,0,2.5c0,0.8,0,1.7-0.2,2.6
										c-0.4,1.7-1.4,3.3-3,4.3c-0.8,0.5-1.7,0.8-2.6,0.9c-1,0.1-1.9,0-2.8,0c-3.8,0-7.8,0-12,0c-8.3,0-17.4,0-27.2,0
										c-2.4,0-4.9,0-7.4,0c-0.6,0-1.3,0-1.9,0c-0.6,0-1.3,0-1.9-0.2c-1.3-0.3-2.5-1-3.3-2.1c-0.9-1-1.5-2.3-1.6-3.6
										c-0.1-1.4,0-2.7-0.1-4c0-1.3,0.1-2.7-0.4-3.9c-0.4-1.2-1.3-2.4-2.4-3.1c-1.1-0.8-2.5-1.1-3.8-1.1c-1.4,0-2.8,0-4.2,0
										c-2.8,0-5.7,0-8.6,0c-5.8,0-11.8,0-18,0c-3,0-6.1,0.4-9,1.7c-2.8,1.3-5.4,3.2-7.5,5.6c-2,2.4-3.5,5.4-4.2,8.5
										c-0.2,0.8-0.3,1.6-0.4,2.4c0,0.8-0.1,1.6-0.1,2.5c0,1.7,0,3.3,0,5c0,13.4,0,27.3,0,41.8c0,28.9,0,59.7,0,92.1
										c0,32.4,0,66.5,0,101.8c0,17.7,0,35.6,0,53.9c0,9.1,0,18.3,0,27.5c0,2.3,0,4.6,0,6.9c0,2.3,0.1,4.6,0.8,6.8
										c1.3,4.4,4.1,8.3,7.9,11c3.8,2.6,8.4,3.8,13.1,3.6c4.7,0,9.3,0,13.9,0c9.2,0,18.4,0,27.5,0c18.2,0,36.2,0,53.8,0
										c8.8,0,17.6,0,26.2,0c4.3,0,8.7,0.1,12.9-0.1c4.2-0.2,8.3-1.9,11.6-4.5c1.6-1.3,3-2.9,4.2-4.6c1.2-1.7,2-3.7,2.6-5.6
										c0.6-2,0.7-4.1,0.8-6.1c0-2.1,0-4.2,0-6.2c0-8.3,0-16.5,0-24.6c0-64.9,0.1-123.3,0.1-172.4c0.1-49.1,0.1-88.8,0.1-116.2
										c0-3.4,0-6.7,0-9.7c0-3-0.5-5.9-1.5-8.3c-2-4.9-5.4-8.1-8.5-9.9c-3.1-1.9-5.9-2.5-7.7-2.7c-0.9-0.2-1.6-0.1-2.1-0.2
										C264.7,95.2,264.4,95.2,264.4,95.2z"/>
								</g>
							</g>
						</g>
					</g>
				</g>
			</g>
		</g>
		<g id="XMLID_435_">
			<g id="XMLID_451_">
				<path id="XMLID_1300_" class="st5" d="M262.1,308.2h-4.8c-2.5,0-4.6-2-4.6-4.6V300c0-2.5,2-4.6,4.6-4.6h4.8c2.5,0,4.6,2,4.6,4.6
					v3.6C266.6,306.1,264.6,308.2,262.1,308.2z"/>
			</g>
			<g id="XMLID_448_">
				<path id="XMLID_449_" class="st5" d="M232.7,298.5c-0.8-0.1-1.6,0.6-1.7,1.5c-0.1-0.9-0.9-1.6-1.7-1.5c-0.8,0.1-1.4,1-1.3,1.9
					c0.1,0.8,0.7,1.4,1.3,1.8c0.6,0.4,1.2,0.8,1.7,1.4c0.4-0.6,1.1-1,1.7-1.4c0.6-0.4,1.2-1,1.3-1.8
					C234.1,299.6,233.5,298.7,232.7,298.5z"/>
			</g>
			<g id="XMLID_446_">
				<circle id="XMLID_447_" class="st2" cx="241" cy="301.1" r="0.8"/>
			</g>
			<g id="XMLID_444_">
				<circle id="XMLID_445_" class="st2" cx="243.5" cy="301.1" r="0.8"/>
			</g>
			<g id="XMLID_442_">
				<circle id="XMLID_443_" class="st2" cx="246" cy="301.1" r="0.8"/>
			</g>
			<g id="XMLID_439_">
				<g id="XMLID_440_">
					<ellipse id="XMLID_441_" class="st2" cx="182" cy="306.4" rx="24.6" ry="0.3"/>
				</g>
			</g>
			<g id="XMLID_436_">
				<g id="XMLID_437_">
					<ellipse id="XMLID_438_" class="st2" cx="168.4" cy="310.4" rx="10.6" ry="0.3"/>
				</g>
			</g>
		</g>
		<g id="XMLID_431_">
			<path id="XMLID_432_" class="st5" d="M139.2,292c-5.7,0-10.2,4.6-10.2,10.2s4.6,10.2,10.2,10.2c5.7,0,10.2-4.6,10.2-10.2
				S144.8,292,139.2,292z M139.2,305c-1.5,0-2.7-1.2-2.7-2.7c0-1.5,1.2-2.7,2.7-2.7c1.5,0,2.7,1.2,2.7,2.7
				C141.9,303.7,140.7,305,139.2,305z"/>
		</g>
		<g id="XMLID_428_">
			<g id="XMLID_429_">
				<path id="XMLID_430_" class="st2" d="M265,213.9c0,0.2-30.5,0.3-68.1,0.3c-37.6,0-68.1-0.1-68.1-0.3s30.5-0.3,68.1-0.3
					C234.6,213.6,265,213.7,265,213.9z"/>
			</g>
		</g>
		<g id="XMLID_425_">
			<g id="XMLID_426_">
				<path id="XMLID_427_" class="st2" d="M265,250.1c0,0.2-30.5,0.3-68.1,0.3c-37.6,0-68.1-0.1-68.1-0.3c0-0.2,30.5-0.3,68.1-0.3
					C234.6,249.7,265,249.9,265,250.1z"/>
			</g>
		</g>
		<g id="XMLID_421_">
			<g id="XMLID_423_">
				<path id="XMLID_424_" class="st2" d="M265,286.2c0,0.2-30.5,0.3-68.1,0.3c-37.6,0-68.1-0.1-68.1-0.3s30.5-0.3,68.1-0.3
					C234.6,285.9,265,286.1,265,286.2z"/>
			</g>
		</g>
		<g id="XMLID_418_">
			<g id="XMLID_419_">
				<path id="XMLID_420_" class="st2" d="M265,322.4c0,0.2-30.5,0.3-68.1,0.3c-37.6,0-68.1-0.1-68.1-0.3c0-0.2,30.5-0.3,68.1-0.3
					C234.6,322.1,265,322.2,265,322.4z"/>
			</g>
		</g>
		<g id="XMLID_415_">
			<g id="XMLID_416_">
				<path id="XMLID_417_" class="st2" d="M265,358.6c0,0.2-30.5,0.3-68.1,0.3c-37.6,0-68.1-0.1-68.1-0.3s30.5-0.3,68.1-0.3
					C234.6,358.3,265,358.4,265,358.6z"/>
			</g>
		</g>
		<g id="XMLID_412_">
			<g id="XMLID_413_">
				<path id="XMLID_414_" class="st6" d="M265,394.8c0,0.2-30.5,0.3-68.1,0.3c-37.6,0-68.1-0.1-68.1-0.3s30.5-0.3,68.1-0.3
					C234.6,394.5,265,394.6,265,394.8z"/>
			</g>
		</g>
		<g id="XMLID_409_">
			<g id="XMLID_410_">
				<ellipse id="XMLID_411_" class="st2" cx="196.7" cy="186.2" rx="24.7" ry="0.3"/>
			</g>
		</g>
		<g id="XMLID_408_">
			<rect id="XMLID_1258_" x="157.3" y="299.8" class="st5" width="38.5" height="1.9"/>
		</g>
		<g id="XMLID_240_">
			<g id="XMLID_407_">
				<path id="XMLID_1256_" class="st12" d="M262.1,238.4h-4.8c-2.5,0-4.6-2-4.6-4.6v-3.6c0-2.5,2-4.6,4.6-4.6h4.8
					c2.5,0,4.6,2,4.6,4.6v3.6C266.6,236.4,264.6,238.4,262.1,238.4z"/>
			</g>
			<g id="XMLID_237_">
				<path id="XMLID_238_" class="st12" d="M139.2,221.9c-5.7,0-10.2,4.6-10.2,10.2s4.6,10.2,10.2,10.2c5.7,0,10.2-4.6,10.2-10.2
					S144.8,221.9,139.2,221.9z M139.2,234.8c-1.5,0-2.7-1.2-2.7-2.7c0-1.5,1.2-2.7,2.7-2.7c1.5,0,2.7,1.2,2.7,2.7
					C141.9,233.6,140.7,234.8,139.2,234.8z"/>
			</g>
			<g id="XMLID_235_">
				<path id="XMLID_236_" class="st12" d="M232.7,228.8c-0.8-0.1-1.6,0.6-1.7,1.5c-0.1-0.9-0.9-1.6-1.7-1.5c-0.8,0.1-1.4,1-1.3,1.9
					c0.1,0.8,0.7,1.4,1.3,1.8c0.6,0.4,1.2,0.8,1.7,1.4c0.4-0.6,1.1-1,1.7-1.4c0.6-0.4,1.2-1,1.3-1.8
					C234.1,229.8,233.5,228.9,232.7,228.8z"/>
			</g>
			<g id="XMLID_233_">
				<circle id="XMLID_234_" class="st2" cx="241" cy="231.4" r="0.8"/>
			</g>
			<g id="XMLID_231_">
				<circle id="XMLID_232_" class="st2" cx="243.5" cy="231.4" r="0.8"/>
			</g>
			<g id="XMLID_229_">
				<circle id="XMLID_230_" class="st2" cx="246" cy="231.4" r="0.8"/>
			</g>
			<g id="XMLID_254_">
				<path id="XMLID_255_" class="st7" d="M258.5,230c0,1,0,2.5,0,3.6c0,0.5,0.5,0.7,0.9,0.4l2.4-1.8c0.3-0.2,0.3-0.7,0-0.9l-2.4-1.8
					C259,229.3,258.5,229.5,258.5,230z"/>
			</g>
			<g id="XMLID_256_">
				<rect id="XMLID_1240_" x="157.3" y="228.1" class="st12" width="38.5" height="1.9"/>
			</g>
			<g id="XMLID_257_">
				<g id="XMLID_258_">
					<ellipse id="XMLID_259_" class="st2" cx="182" cy="236.6" rx="24.6" ry="0.3"/>
				</g>
			</g>
			<g id="XMLID_260_">
				<g id="XMLID_261_">
					<ellipse id="XMLID_262_" class="st2" cx="168.4" cy="240.6" rx="10.6" ry="0.3"/>
				</g>
			</g>
		</g>
		<g id="XMLID_263_">
			<g id="XMLID_264_">
				<path id="XMLID_1231_" class="st12" d="M262.1,346.1h-4.8c-2.5,0-4.6-2-4.6-4.6V338c0-2.5,2-4.6,4.6-4.6h4.8
					c2.5,0,4.6,2,4.6,4.6v3.6C266.6,344,264.6,346.1,262.1,346.1z"/>
			</g>
			<g id="XMLID_265_">
				<path id="XMLID_266_" class="st12" d="M139.2,329.5c-5.7,0-10.2,4.6-10.2,10.2c0,5.7,4.6,10.2,10.2,10.2
					c5.7,0,10.2-4.6,10.2-10.2C149.4,334.1,144.8,329.5,139.2,329.5z M139.2,342.5c-1.5,0-2.7-1.2-2.7-2.7c0-1.5,1.2-2.7,2.7-2.7
					c1.5,0,2.7,1.2,2.7,2.7C141.9,341.3,140.7,342.5,139.2,342.5z"/>
			</g>
			<g id="XMLID_225_">
				<path id="XMLID_226_" class="st12" d="M232.7,336.5c-0.8-0.1-1.6,0.6-1.7,1.5c-0.1-0.9-0.9-1.6-1.7-1.5c-0.8,0.1-1.4,1-1.3,1.9
					c0.1,0.8,0.7,1.4,1.3,1.8c0.6,0.4,1.2,0.8,1.7,1.4c0.4-0.6,1.1-1,1.7-1.4c0.6-0.4,1.2-1,1.3-1.8
					C234.1,337.5,233.5,336.6,232.7,336.5z"/>
			</g>
			<g id="XMLID_223_">
				<circle id="XMLID_224_" class="st2" cx="241" cy="339" r="0.8"/>
			</g>
			<g id="XMLID_221_">
				<circle id="XMLID_222_" class="st2" cx="243.5" cy="339" r="0.8"/>
			</g>
			<g id="XMLID_219_">
				<circle id="XMLID_220_" class="st2" cx="246" cy="339" r="0.8"/>
			</g>
			<g id="XMLID_217_">
				<path id="XMLID_218_" class="st7" d="M258.5,337.6c0,1,0,2.5,0,3.6c0,0.5,0.5,0.7,0.9,0.4l2.4-1.8c0.3-0.2,0.3-0.7,0-0.9
					l-2.4-1.8C259,336.9,258.5,337.2,258.5,337.6z"/>
			</g>
			<g id="XMLID_212_">
				<rect id="XMLID_1215_" x="157.3" y="335.8" class="st12" width="38.5" height="1.9"/>
			</g>
			<g id="XMLID_209_">
				<g id="XMLID_210_">
					<ellipse id="XMLID_211_" class="st2" cx="182" cy="344.3" rx="24.6" ry="0.3"/>
				</g>
			</g>
			<g id="XMLID_206_">
				<g id="XMLID_207_">
					<ellipse id="XMLID_208_" class="st2" cx="168.4" cy="348.3" rx="10.6" ry="0.3"/>
				</g>
			</g>
		</g>
		<g id="XMLID_192_">
			<g id="XMLID_205_">
				<path id="XMLID_1206_" class="st6" d="M262.1,383.2h-4.8c-2.5,0-4.6-2-4.6-4.6v-3.6c0-2.5,2-4.6,4.6-4.6h4.8
					c2.5,0,4.6,2,4.6,4.6v3.6C266.6,381.2,264.6,383.2,262.1,383.2z"/>
			</g>
			<g id="XMLID_201_">
				<path id="XMLID_202_" class="st6" d="M139.2,366.7c-5.7,0-10.2,4.6-10.2,10.2c0,5.7,4.6,10.2,10.2,10.2
					c5.7,0,10.2-4.6,10.2-10.2C149.4,371.3,144.8,366.7,139.2,366.7z M139.2,379.6c-1.5,0-2.7-1.2-2.7-2.7c0-1.5,1.2-2.7,2.7-2.7
					c1.5,0,2.7,1.2,2.7,2.7C141.9,378.4,140.7,379.6,139.2,379.6z"/>
			</g>
			<g id="XMLID_199_">
				<path id="XMLID_200_" class="st6" d="M232.7,373.6c-0.8-0.1-1.6,0.6-1.7,1.5c-0.1-0.9-0.9-1.6-1.7-1.5c-0.8,0.1-1.4,1-1.3,1.9
					c0.1,0.8,0.7,1.4,1.3,1.8c0.6,0.4,1.2,0.8,1.7,1.4c0.4-0.6,1.1-1,1.7-1.4c0.6-0.4,1.2-1,1.3-1.8
					C234.1,374.6,233.5,373.7,232.7,373.6z"/>
			</g>
			<g id="XMLID_197_">
				<circle id="XMLID_198_" class="st6" cx="241" cy="376.2" r="0.8"/>
			</g>
			<g id="XMLID_195_">
				<circle id="XMLID_196_" class="st6" cx="243.5" cy="376.2" r="0.8"/>
			</g>
			<g id="XMLID_193_">
				<circle id="XMLID_194_" class="st6" cx="246" cy="376.2" r="0.8"/>
			</g>
			<g id="XMLID_300_">
				<path id="XMLID_301_" class="st7" d="M258.5,374.8c0,1,0,2.5,0,3.6c0,0.5,0.5,0.7,0.9,0.4l2.4-1.8c0.3-0.2,0.3-0.7,0-0.9
					l-2.4-1.8C259,374.1,258.5,374.3,258.5,374.8z"/>
			</g>
			<g id="XMLID_302_">
				<rect id="XMLID_1190_" x="157.3" y="372.9" class="st6" width="38.5" height="1.9"/>
			</g>
			<g id="XMLID_303_">
				<g id="XMLID_304_">
					<ellipse id="XMLID_305_" class="st6" cx="182" cy="381.4" rx="24.6" ry="0.3"/>
				</g>
			</g>
			<g id="XMLID_306_">
				<g id="XMLID_307_">
					<ellipse id="XMLID_308_" class="st6" cx="168.4" cy="385.5" rx="10.6" ry="0.3"/>
				</g>
			</g>
		</g>
		<g id="XMLID_309_">
			<g id="XMLID_310_">
				<path id="XMLID_311_" class="st6" d="M265,431.4c0,0.2-30.5,0.3-68.1,0.3c-37.6,0-68.1-0.1-68.1-0.3s30.5-0.3,68.1-0.3
					C234.6,431.1,265,431.2,265,431.4z"/>
			</g>
		</g>
		<g id="XMLID_312_">
			<g id="XMLID_313_">
				<path id="XMLID_1178_" class="st6" d="M262.1,419.8h-4.8c-2.5,0-4.6-2-4.6-4.6v-3.6c0-2.5,2-4.6,4.6-4.6h4.8
					c2.5,0,4.6,2,4.6,4.6v3.6C266.6,417.8,264.6,419.8,262.1,419.8z"/>
			</g>
			<g id="XMLID_314_">
				<path id="XMLID_315_" class="st6" d="M139.2,403.3c-5.7,0-10.2,4.6-10.2,10.2c0,5.7,4.6,10.2,10.2,10.2
					c5.7,0,10.2-4.6,10.2-10.2C149.4,407.9,144.8,403.3,139.2,403.3z M139.2,416.2c-1.5,0-2.7-1.2-2.7-2.7c0-1.5,1.2-2.7,2.7-2.7
					c1.5,0,2.7,1.2,2.7,2.7C141.9,415,140.7,416.2,139.2,416.2z"/>
			</g>
			<g id="XMLID_318_">
				<path id="XMLID_319_" class="st6" d="M232.7,410.2c-0.8-0.1-1.6,0.6-1.7,1.5c-0.1-0.9-0.9-1.6-1.7-1.5c-0.8,0.1-1.4,1-1.3,1.9
					c0.1,0.8,0.7,1.4,1.3,1.8c0.6,0.4,1.2,0.8,1.7,1.4c0.4-0.6,1.1-1,1.7-1.4c0.6-0.4,1.2-1,1.3-1.8
					C234.1,411.3,233.5,410.3,232.7,410.2z"/>
			</g>
			<g id="XMLID_320_">
				<circle id="XMLID_321_" class="st6" cx="241" cy="412.8" r="0.8"/>
			</g>
			<g id="XMLID_322_">
				<circle id="XMLID_323_" class="st6" cx="243.5" cy="412.8" r="0.8"/>
			</g>
			<g id="XMLID_324_">
				<circle id="XMLID_325_" class="st6" cx="246" cy="412.8" r="0.8"/>
			</g>
			<g id="XMLID_326_">
				<path id="XMLID_327_" class="st7" d="M258.5,411.4c0,1,0,2.5,0,3.6c0,0.5,0.5,0.7,0.9,0.4l2.4-1.8c0.3-0.2,0.3-0.7,0-0.9
					l-2.4-1.8C259,410.7,258.5,410.9,258.5,411.4z"/>
			</g>
			<g id="XMLID_328_">
				<rect id="XMLID_1162_" x="157.3" y="409.5" class="st6" width="38.5" height="1.9"/>
			</g>
			<g id="XMLID_329_">
				<g id="XMLID_330_">
					<ellipse id="XMLID_331_" class="st6" cx="182" cy="418" rx="24.6" ry="0.3"/>
				</g>
			</g>
			<g id="XMLID_332_">
				<g id="XMLID_333_">
					<ellipse id="XMLID_334_" class="st6" cx="168.4" cy="422.1" rx="10.6" ry="0.3"/>
				</g>
			</g>
		</g>
		<g id="XMLID_335_">
			<g id="XMLID_336_">
				<path id="XMLID_1153_" class="st12" d="M262.1,273.5h-4.8c-2.5,0-4.6-2-4.6-4.6v-3.6c0-2.5,2-4.6,4.6-4.6h4.8
					c2.5,0,4.6,2,4.6,4.6v3.6C266.6,271.5,264.6,273.5,262.1,273.5z"/>
			</g>
			<g id="XMLID_337_">
				<path id="XMLID_338_" class="st12" d="M139.2,257c-5.7,0-10.2,4.6-10.2,10.2s4.6,10.2,10.2,10.2c5.7,0,10.2-4.6,10.2-10.2
					S144.8,257,139.2,257z M139.2,269.9c-1.5,0-2.7-1.2-2.7-2.7c0-1.5,1.2-2.7,2.7-2.7c1.5,0,2.7,1.2,2.7,2.7
					C141.9,268.7,140.7,269.9,139.2,269.9z"/>
			</g>
			<g id="XMLID_341_">
				<g id="XMLID_342_">
					<path id="XMLID_343_" class="st2" d="M232.7,263.9c0,0,0.2,0,0.5,0.1c0.3,0.2,0.7,0.6,0.8,1.2c0.2,0.6-0.2,1.5-0.8,2
						c-0.6,0.6-1.5,1-2.1,1.8l-0.1,0.2l-0.1-0.2c-0.4-0.6-1.1-1-1.8-1.6c-0.6-0.4-1-1-1.1-1.7c-0.1-0.7,0.2-1.4,0.8-1.8
						c0.5-0.4,1.3-0.3,1.7,0c0.4,0.3,0.7,0.8,0.7,1.3h-0.2c0.1-0.8,0.7-1.3,1.1-1.4C232.5,263.8,232.7,263.9,232.7,263.9
						c0,0-0.2,0-0.6,0.1c-0.4,0.2-0.9,0.6-1,1.4h-0.2c0-0.4-0.3-0.8-0.7-1.1c-0.4-0.3-1-0.4-1.4,0c-0.4,0.3-0.7,0.9-0.7,1.5
						c0.1,0.6,0.5,1.2,1,1.6c0.7,0.5,1.4,0.9,1.9,1.6h-0.2c0.6-0.9,1.5-1.3,2.1-1.8c0.6-0.5,0.9-1.3,0.8-1.9c-0.1-0.6-0.5-1-0.7-1.2
						C232.9,263.9,232.7,263.9,232.7,263.9z"/>
				</g>
			</g>
			<g id="XMLID_344_">
				<circle id="XMLID_345_" class="st2" cx="241" cy="266.4" r="0.8"/>
			</g>
			<g id="XMLID_346_">
				<circle id="XMLID_347_" class="st2" cx="243.5" cy="266.4" r="0.8"/>
			</g>
			<g id="XMLID_348_">
				<circle id="XMLID_349_" class="st2" cx="246" cy="266.4" r="0.8"/>
			</g>
			<g id="XMLID_350_">
				<path id="XMLID_351_" class="st7" d="M258.5,265.1c0,1,0,2.5,0,3.6c0,0.5,0.5,0.7,0.9,0.4l2.4-1.8c0.3-0.2,0.3-0.7,0-0.9
					l-2.4-1.8C259,264.3,258.5,264.6,258.5,265.1z"/>
			</g>
			<g id="XMLID_352_">
				<rect id="XMLID_1136_" x="157.3" y="263.2" class="st12" width="38.5" height="1.9"/>
			</g>
			<g id="XMLID_353_">
				<g id="XMLID_354_">
					<ellipse id="XMLID_355_" class="st2" cx="182" cy="271.7" rx="24.6" ry="0.3"/>
				</g>
			</g>
			<g id="XMLID_356_">
				<g id="XMLID_357_">
					<ellipse id="XMLID_358_" class="st2" cx="168.4" cy="275.7" rx="10.6" ry="0.3"/>
				</g>
			</g>
		</g>
		<g id="XMLID_359_">
			<rect id="XMLID_1127_" x="258.1" y="298.8" class="st7" width="1.2" height="6.1"/>
		</g>
		<g id="XMLID_360_">
			<rect id="XMLID_1125_" x="260.7" y="298.8" class="st7" width="1.2" height="6.1"/>
		</g>
		<g id="XMLID_361_">
			<rect id="XMLID_1123_" x="164.6" y="169.5" class="st5" width="64.6" height="4.6"/>
		</g>
		<g id="XMLID_400_">
			<g id="XMLID_401_">
				<path id="XMLID_402_" class="st2" d="M137,139.7c-0.1,0.1-3.1-2.1-6.6-4.9c0-1,0-0.3,0-0.5l0,0l0,0l0,0l0,0l0,0l0.1-0.1l0.2-0.1
					l0.3-0.3c0.2-0.2,0.4-0.3,0.6-0.5c0.4-0.3,0.8-0.6,1.2-1c0.7-0.6,1.4-1.1,2.1-1.6c1.2-0.9,2-1.4,2-1.3c0.1,0.1-0.6,0.7-1.7,1.7
					c-0.6,0.5-1.3,1.1-2,1.7c-0.4,0.3-0.8,0.7-1.2,1c-0.2,0.2-0.4,0.3-0.6,0.5l-0.3,0.3l-0.2,0.1l-0.1,0.1l0,0l0,0l0,0l0,0l0,0
					c0-0.2,0,0.5,0-0.5C134.3,137.1,137.1,139.5,137,139.7z"/>
			</g>
		</g>
		<g id="XMLID_403_">
			<g id="XMLID_404_">
				<path id="XMLID_405_" class="st2" d="M261.1,129.3c0.1-0.1,3.1,2.1,6.6,4.9c0,1,0,0.3,0,0.5l0,0l0,0l0,0l0,0l0,0l-0.1,0.1
					l-0.2,0.1l-0.3,0.3c-0.2,0.2-0.4,0.3-0.6,0.5c-0.4,0.3-0.8,0.6-1.2,1c-0.7,0.6-1.4,1.1-2.1,1.6c-1.2,0.9-2,1.4-2,1.3
					c-0.1-0.1,0.6-0.7,1.7-1.7c0.6-0.5,1.3-1.1,2-1.7c0.4-0.3,0.8-0.7,1.2-1c0.2-0.2,0.4-0.3,0.6-0.5l0.3-0.3l0.2-0.1l0.1-0.1l0,0
					l0,0l0,0l0,0l0,0c0,0.2,0-0.5,0,0.5C263.7,131.9,260.9,129.4,261.1,129.3z"/>
			</g>
		</g>
	</g>
	<g id="XMLID_362_">
		<path id="XMLID_386_" d="M157.6,137.6l0.9-2.1c0.9,0.6,2.2,1,3.4,1c1.2,0,1.7-0.3,1.7-0.8c0-1.6-5.8-0.4-5.8-4.2
			c0-1.8,1.5-3.3,4.5-3.3c1.3,0,2.7,0.3,3.7,0.9l-0.9,2.1c-1-0.5-1.9-0.8-2.8-0.8c-1.2,0-1.6,0.4-1.6,0.9c0,1.6,5.8,0.4,5.8,4.2
			c0,1.8-1.5,3.3-4.5,3.3C160.2,138.8,158.5,138.3,157.6,137.6z"/>
		<path id="XMLID_388_" d="M167.3,128.3c0-0.8,0.7-1.5,1.7-1.5c1,0,1.7,0.6,1.7,1.4c0,0.9-0.7,1.5-1.7,1.5
			C168,129.8,167.3,129.1,167.3,128.3z M167.6,130.6h2.8v7.9h-2.8V130.6z"/>
		<path id="XMLID_391_" d="M177.6,138.2c-0.5,0.3-1.2,0.5-1.9,0.5c-2,0-3.2-1-3.2-3V133h-1.2v-2.1h1.2v-2.1h2.8v2.1h1.8v2.1h-1.8
			v2.6c0,0.6,0.3,0.9,0.8,0.9c0.3,0,0.6-0.1,0.8-0.2L177.6,138.2z"/>
		<path id="XMLID_393_" d="M187,130.6v7.9h-2.6v-0.8c-0.6,0.7-1.4,1-2.4,1c-1.9,0-3.4-1.1-3.4-3.6v-4.4h2.8v4c0,1.2,0.5,1.7,1.3,1.7
			c0.8,0,1.5-0.5,1.5-1.9v-3.8H187z"/>
		<path id="XMLID_395_" d="M196.2,134.2v4.4h-2.6v-1c-0.4,0.8-1.2,1.2-2.3,1.2c-1.9,0-2.9-1.1-2.9-2.4c0-1.5,1.1-2.4,3.5-2.4h1.6
			c0-0.8-0.6-1.3-1.7-1.3c-0.8,0-1.6,0.3-2.1,0.7l-0.9-1.9c0.9-0.6,2.2-0.9,3.5-0.9C194.8,130.5,196.2,131.6,196.2,134.2z
			 M193.5,136v-0.7h-1.2c-0.9,0-1.2,0.3-1.2,0.8c0,0.5,0.4,0.8,1,0.8C192.7,136.9,193.2,136.6,193.5,136z"/>
		<path id="XMLID_398_" d="M204.9,136.5v2.1h-7.3v-1.6l3.7-4.2h-3.6v-2.1h7.1v1.6l-3.7,4.2H204.9z"/>
		<path id="XMLID_462_" d="M205.8,128.3c0-0.8,0.7-1.5,1.7-1.5c1,0,1.7,0.6,1.7,1.4c0,0.9-0.7,1.5-1.7,1.5
			C206.5,129.8,205.8,129.1,205.8,128.3z M206.1,130.6h2.8v7.9h-2.8V130.6z"/>
		<path id="XMLID_468_" d="M210.2,134.6c0-2.4,1.9-4.1,4.5-4.1c2.6,0,4.5,1.7,4.5,4.1c0,2.4-1.9,4.1-4.5,4.1
			C212.1,138.7,210.2,137,210.2,134.6z M216.3,134.6c0-1.2-0.7-1.9-1.7-1.9c-0.9,0-1.7,0.7-1.7,1.9c0,1.2,0.7,1.9,1.7,1.9
			C215.6,136.5,216.3,135.8,216.3,134.6z"/>
		<path id="XMLID_537_" d="M228.8,134v4.5H226v-4.1c0-1.1-0.5-1.6-1.3-1.6c-0.9,0-1.6,0.6-1.6,1.9v3.8h-2.8v-7.9h2.6v0.9
			c0.6-0.7,1.5-1,2.5-1C227.4,130.5,228.8,131.6,228.8,134z"/>
		<path id="XMLID_541_" d="M238.7,135.3H233c0.2,0.8,0.9,1.3,1.9,1.3c0.8,0,1.3-0.2,1.8-0.7l1.5,1.5c-0.8,0.8-1.9,1.3-3.4,1.3
			c-2.8,0-4.6-1.7-4.6-4.1c0-2.4,1.9-4.1,4.4-4.1c2.3,0,4.2,1.5,4.2,4.1C238.8,134.8,238.7,135.1,238.7,135.3z M232.9,133.8h3.2
			c-0.1-0.8-0.8-1.4-1.6-1.4C233.7,132.5,233.1,133,232.9,133.8z"/>
	</g>
	<g id="XMLID_363_">
		<path id="XMLID_365_" d="M175.8,160.5l-2.9,6.8H171l-2.9-6.8h2.1l1.9,4.4l1.9-4.4H175.8z"/>
		<path id="XMLID_367_" d="M176.1,160.4c0-0.6,0.4-1,1.1-1c0.7,0,1.1,0.4,1.1,1c0,0.6-0.4,1-1.1,1
			C176.5,161.4,176.1,161,176.1,160.4z M176.3,162h1.8v5.3h-1.8V162z"/>
		<path id="XMLID_370_" d="M184.3,164.4v2.9h-1.7v-0.7c-0.3,0.5-0.8,0.8-1.6,0.8c-1.3,0-2-0.7-2-1.6c0-1,0.7-1.6,2.3-1.6h1.1
			c0-0.5-0.4-0.8-1.1-0.8c-0.5,0-1.1,0.2-1.4,0.5l-0.6-1.3c0.6-0.4,1.5-0.6,2.3-0.6C183.3,161.9,184.3,162.7,184.3,164.4z
			 M182.4,165.6v-0.5h-0.8c-0.6,0-0.8,0.2-0.8,0.5c0,0.3,0.3,0.5,0.7,0.5C181.9,166.2,182.3,166,182.4,165.6z"/>
		<path id="XMLID_373_" d="M191.3,165.5h-1.1v1.8h-1.9v-6.8h3.1c1.9,0,3,1,3,2.5c0,1-0.5,1.7-1.3,2.2l1.5,2.1h-2.1L191.3,165.5z
			 M191.3,162h-1.1v2h1.1c0.8,0,1.2-0.4,1.2-1C192.5,162.4,192.1,162,191.3,162z"/>
		<path id="XMLID_376_" d="M195.1,164.6c0-1.6,1.3-2.7,3-2.7c1.7,0,3,1.1,3,2.7c0,1.6-1.2,2.7-3,2.7
			C196.4,167.4,195.1,166.2,195.1,164.6z M199.2,164.6c0-0.8-0.5-1.2-1.1-1.2c-0.6,0-1.1,0.4-1.1,1.2c0,0.8,0.5,1.3,1.1,1.3
			C198.7,165.9,199.2,165.5,199.2,164.6z"/>
		<path id="XMLID_379_" d="M211,164.3v3h-1.8v-2.7c0-0.8-0.3-1.1-0.8-1.1c-0.5,0-0.9,0.4-0.9,1.2v2.6h-1.8v-2.7
			c0-0.8-0.3-1.1-0.8-1.1c-0.5,0-0.9,0.4-0.9,1.2v2.6h-1.8V162h1.8v0.6c0.4-0.4,1-0.6,1.6-0.6c0.7,0,1.3,0.3,1.7,0.8
			c0.4-0.5,1.1-0.8,1.8-0.8C210,161.9,211,162.6,211,164.3z"/>
		<path id="XMLID_381_" d="M217.1,164.4v2.9h-1.7v-0.7c-0.3,0.5-0.8,0.8-1.6,0.8c-1.3,0-2-0.7-2-1.6c0-1,0.7-1.6,2.3-1.6h1.1
			c0-0.5-0.4-0.8-1.1-0.8c-0.5,0-1.1,0.2-1.4,0.5l-0.6-1.3c0.6-0.4,1.5-0.6,2.3-0.6C216.1,161.9,217.1,162.7,217.1,164.4z
			 M215.2,165.6v-0.5h-0.8c-0.6,0-0.8,0.2-0.8,0.5c0,0.3,0.3,0.5,0.7,0.5C214.7,166.2,215.1,166,215.2,165.6z"/>
		<path id="XMLID_384_" d="M223.7,160.5v6.8h-1.9V162h-1.3v-1.5H223.7z"/>
	</g>
</g>
<g id="Character">
</g>
<g id="Plant">
</g>
</svg>
