<?xml version="1.0" encoding="utf-8"?>
<!-- Generator: Adobe Illustrator 19.0.0, SVG Export Plug-In . SVG Version: 6.00 Build 0)  -->
<svg version="1.1" id="Livello_1" xmlns="http://www.w3.org/2000/svg" xmlns:xlink="http://www.w3.org/1999/xlink" x="0px" y="0px"
	 viewBox="0 0 479 112.5" style="enable-background:new 0 0 479 112.5;" xml:space="preserve">
<style type="text/css">
	.st0{fill:#E23E57;}
	.st1{fill:#E40C30;}
	.st2{fill:#841628;}
	.st3{opacity:0.9;fill:#FFFFFF;}
	.st4{fill:#202D4A;}
	.st5{font-family:'WesFYW03-Black';}
	.st6{font-size:100px;}
	.st7{letter-spacing:5;}
</style>
<g id="XMLID_23_">
	<path id="XMLID_9_" class="st0" d="M59,0C52.9,0,46.6,0.1,41.8,0.4C28.9,1.3,6.1,5.1,3.4,7.1C0.6,9.1-0.2,10.2,0,14
		c0.2,3.3,3.1,44.6,4,57.7c0.1,2,1.4,6.2,1.6,6.6c2.1,5.2,12.2,15.7,25.6,24.5c13.3,8.9,16.5,9.8,18.4,9.7
		c1.9-0.1,4.9-1.5,16.9-12.1C78.4,89.7,87,78,88.4,72.5c0.1-0.4,0.8-4.7,0.6-6.7C88.4,57,86.9,35.2,85.9,21L59,0z"/>
	<line id="XMLID_4_" class="st1" x1="61.9" y1="22.8" x2="61.7" y2="24.1"/>
	<path id="XMLID_5_" class="st2" d="M61.7,22.4c0.1,0.5,0.2,1.4,0.7,2c0.3,0.4,0.7,0.5,1.2,0.5c1.2,0,10.2-0.7,22.5-1.7
		c0-0.7-0.1-1.4-0.1-2.1"/>
	<path id="XMLID_6_" class="st1" d="M59,0c0,0.2,0,0.3,0,0.5l2.4,21c0.1,1.3,1.3,2.2,2.6,2l21.2-2.4c0.3,0,0.5-0.1,0.7-0.2L59,0z"/>
	<path id="XMLID_12_" class="st3" d="M70,39.4l-50.8,3.5c-0.8,0.1-1.5-0.6-1.6-1.4l-0.3-3.6c-0.1-0.8,0.6-1.5,1.4-1.6l50.8-3.5
		c0.8-0.1,1.5,0.6,1.6,1.4l0.3,3.6C71.4,38.7,70.8,39.4,70,39.4z"/>
	<path id="XMLID_13_" class="st3" d="M71.1,54.9l-50.8,3.5c-0.8,0.1-1.5-0.6-1.6-1.4l-0.3-3.6c-0.1-0.8,0.6-1.5,1.4-1.6l50.8-3.5
		c0.8-0.1,1.5,0.6,1.6,1.4l0.3,3.6C72.5,54.2,71.9,54.9,71.1,54.9z"/>
	<path id="XMLID_16_" class="st3" d="M50.2,71.9l-28.8,2c-0.8,0.1-1.5-0.6-1.6-1.4l-0.3-3.6c-0.1-0.8,0.6-1.5,1.4-1.6l28.8-2
		c0.8-0.1,1.5,0.6,1.6,1.4l0.3,3.6C51.6,71.2,51,71.9,50.2,71.9z"/>
</g>
<text id="XMLID_1_" transform="matrix(1 0 0 1 102.0946 92.5873)"><tspan x="0" y="0" class="st4 st5 st6 st7">DOC</tspan><tspan x="227.4" y="0" class="st0 st5 st6 st7">CO</tspan></text>
</svg>
